<?xml version="1.0" encoding="UTF-8" standalone="no"?>
<svg
   viewBox="0 0 28 20"
   x="0px"
   y="0px"
   version="1.1"
   id="svg2"
   sodipodi:docname="noun-email-6634908.svg"
   width="28"
   height="20"
   inkscape:version="1.3.1 (91b66b0783, 2023-11-16)"
   xmlns:inkscape="http://www.inkscape.org/namespaces/inkscape"
   xmlns:sodipodi="http://sodipodi.sourceforge.net/DTD/sodipodi-0.dtd"
   xmlns="http://www.w3.org/2000/svg"
   xmlns:svg="http://www.w3.org/2000/svg">
  <defs
     id="defs2" />
  <sodipodi:namedview
     id="namedview2"
     pagecolor="#ffffff"
     bordercolor="#000000"
     borderopacity="0.25"
     inkscape:showpageshadow="2"
     inkscape:pageopacity="0.0"
     inkscape:pagecheckerboard="0"
     inkscape:deskcolor="#d1d1d1"
     inkscape:zoom="10.05"
     inkscape:cx="1.1940299"
     inkscape:cy="19.502488"
     inkscape:window-width="1920"
     inkscape:window-height="1008"
     inkscape:window-x="0"
     inkscape:window-y="0"
     inkscape:window-maximized="1"
     inkscape:current-layer="svg2" />
  <g
     data-name="Layer 2"
     id="g1"
     style="fill:#ffcc6f;fill-opacity:1"
     transform="translate(-2,-6)">
    <path
       d="m 26.85,24 1.5,1.66 A 2.94,2.94 0 0 1 27,26 H 5 A 2.94,2.94 0 0 1 3.65,25.66 L 5.14,24 11.61,16.81 14,19.17 a 2.78,2.78 0 0 0 4,0 l 2.41,-2.36 z M 15.42,17.74 a 0.78,0.78 0 0 0 1.16,0 L 26.53,8 28.27,6.29 A 3,3 0 0 0 27,6 H 5 A 3,3 0 0 0 3.73,6.29 L 5.47,8 Z M 10.18,15.41 4,9.36 2.31,7.7 A 3,3 0 0 0 2,9 v 14 a 3.05,3.05 0 0 0 0.26,1.21 L 4,22.28 Z M 29.69,7.7 28,9.36 21.82,15.41 28,22.28 29.74,24.21 A 3.05,3.05 0 0 0 30,23 V 9 A 3,3 0 0 0 29.69,7.7 Z"
       id="path1"
       style="fill:#ffcc6f;fill-opacity:1" />
  </g>
</svg>
