<?xml version="1.0" encoding="UTF-8" standalone="no"?>
<!-- Created with Inkscape (http://www.inkscape.org/) -->

<svg
   width="32.577118mm"
   height="32.577824mm"
   version="1.1"
   viewBox="0 0 32.577116 32.577825"
   id="svg22"
   sodipodi:docname="equom-logo.svg"
   inkscape:version="1.3.1 (91b66b0783, 2023-11-16)"
   xmlns:inkscape="http://www.inkscape.org/namespaces/inkscape"
   xmlns:sodipodi="http://sodipodi.sourceforge.net/DTD/sodipodi-0.dtd"
   xmlns="http://www.w3.org/2000/svg"
   xmlns:svg="http://www.w3.org/2000/svg"
   xmlns:rdf="http://www.w3.org/1999/02/22-rdf-syntax-ns#"
   xmlns:cc="http://creativecommons.org/ns#"
   xmlns:dc="http://purl.org/dc/elements/1.1/">
  <defs
     id="defs22" />
  <sodipodi:namedview
     id="namedview22"
     pagecolor="#ffffff"
     bordercolor="#000000"
     borderopacity="0.25"
     inkscape:showpageshadow="2"
     inkscape:pageopacity="0.0"
     inkscape:pagecheckerboard="0"
     inkscape:deskcolor="#d1d1d1"
     inkscape:document-units="mm"
     inkscape:zoom="1.1057285"
     inkscape:cx="37.079628"
     inkscape:cy="186.30252"
     inkscape:window-width="1920"
     inkscape:window-height="1008"
     inkscape:window-x="0"
     inkscape:window-y="0"
     inkscape:window-maximized="1"
     inkscape:current-layer="g22" />
  <metadata
     id="metadata1">
    <rdf:RDF>
      <cc:Work
         rdf:about="">
        <dc:format>image/svg+xml</dc:format>
        <dc:type
           rdf:resource="http://purl.org/dc/dcmitype/StillImage" />
      </cc:Work>
    </rdf:RDF>
  </metadata>
  <g
     transform="translate(-74.237,-73.562736)"
     id="g22">
    <g
       transform="matrix(0.35278,0,0,-0.35278,74.237,89.852)"
       id="g6">
      <path
         d="M 0,0 C 0,25.461 20.715,46.174 46.172,46.174 71.631,46.174 92.344,25.461 92.344,0 92.344,-25.459 71.631,-46.172 46.172,-46.172 20.715,-46.172 0,-25.459 0,0"
         fill="#1c202d"
         id="path6" />
    </g>
    <g
       transform="matrix(0.35278,0,0,-0.35278,82.963,89.852)"
       id="g7">
      <path
         d="m 0,0 h -1.078 c 0,4.979 1.592,9.697 4.601,13.645 l 0.86,-0.656 C 1.516,9.232 0,4.74 0,0"
         fill="#ffffff"
         id="path7" />
    </g>
    <g
       transform="matrix(0.35278,0,0,-0.35278,98.469,89.852)"
       id="g8">
      <path
         d="m 0,0 h -1.078 c 0,8.522 -5.047,16.236 -12.858,19.652 l 0.434,0.99 C -5.299,17.054 0,8.951 0,0"
         fill="#ffffff"
         id="path8" />
    </g>
    <g
       transform="matrix(0.35278,0,0,-0.35278,79.968,89.852)"
       id="g9">
      <path
         d="m 0,0 h -1.078 c 0,13.778 9.244,26.04 22.478,29.818 l 0.295,-1.036 C 8.924,25.135 0,13.301 0,0"
         fill="#ffffff"
         id="path9" />
    </g>
    <g
       transform="matrix(0.35278,0,0,-0.35278,101.46,89.852)"
       id="g10">
      <path
         d="m 0,0 h -1.08 c 0,8.522 -3.652,16.667 -10.018,22.343 l 0.719,0.805 C -3.783,17.268 0,8.829 0,0"
         fill="#ffffff"
         id="path10" />
    </g>
    <g
       transform="matrix(0.35278,0,0,-0.35278,77.151,89.852)"
       id="g11">
      <path
         d="m 0,0 h -1.078 c 0,11.606 5.119,22.527 14.043,29.965 l 0.691,-0.828 C 4.979,21.903 0,11.284 0,0"
         fill="#ffffff"
         id="path11" />
    </g>
    <g
       transform="matrix(0.35278,0,0,-0.35278,104.28,89.852)"
       id="g12">
      <path
         d="m 0,0 h -1.08 c 0,16.78 -10.772,31.352 -26.803,36.259 l 0.315,1.03 C -11.08,32.245 0,17.259 0,0"
         fill="#ffffff"
         id="path12" />
    </g>
    <g
       transform="matrix(0.35278,0,0,-0.35278,82.39,78.534)"
       id="g13">
      <path
         d="m 0,0 c -0.758,0 -1.375,-0.618 -1.375,-1.375 0,-0.758 0.617,-1.377 1.375,-1.377 0.76,0 1.377,0.619 1.377,1.377 C 1.377,-0.618 0.76,0 0,0 m 0,-3.829 c -1.352,0 -2.453,1.1 -2.453,2.454 0,1.354 1.101,2.454 2.453,2.454 1.354,0 2.455,-1.1 2.455,-2.454 0,-1.354 -1.101,-2.454 -2.455,-2.454"
         fill="#ffffff"
         id="path13" />
    </g>
    <g
       transform="matrix(0.35278,0,0,-0.35278,88.245,78.834)"
       id="g14">
      <path
         d="m 0,0 c -0.758,0 -1.375,-0.617 -1.375,-1.377 0,-0.758 0.617,-1.373 1.375,-1.373 0.758,0 1.375,0.615 1.375,1.373 C 1.375,-0.617 0.758,0 0,0 m 0,-3.828 c -1.354,0 -2.455,1.099 -2.455,2.451 0,1.356 1.101,2.457 2.455,2.457 1.355,0 2.453,-1.101 2.453,-2.457 0,-1.352 -1.098,-2.451 -2.453,-2.451"
         fill="#ffffff"
         id="path14" />
    </g>
    <g
       transform="matrix(0.35278,0,0,-0.35278,84.762,84.154)"
       id="g15">
      <path
         d="m 0,0 c -0.758,0 -1.373,-0.615 -1.373,-1.373 0,-0.759 0.615,-1.377 1.373,-1.377 0.76,0 1.377,0.618 1.377,1.377 C 1.377,-0.615 0.76,0 0,0 m 0,-3.829 c -1.354,0 -2.455,1.1 -2.455,2.456 0,1.352 1.101,2.452 2.455,2.452 1.354,0 2.455,-1.1 2.455,-2.452 0,-1.356 -1.101,-2.456 -2.455,-2.456"
         fill="#ffffff"
         id="path15" />
    </g>
    <g
       transform="matrix(0.35278,0,0,-0.35278,93.102,82.092)"
       id="g16">
      <path
         d="m 0,0 c -0.758,0 -1.377,-0.618 -1.377,-1.376 0,-0.758 0.619,-1.374 1.377,-1.374 0.758,0 1.377,0.616 1.377,1.374 C 1.377,-0.618 0.758,0 0,0 m 0,-3.829 c -1.354,0 -2.455,1.1 -2.455,2.453 0,1.355 1.101,2.455 2.455,2.455 1.354,0 2.455,-1.1 2.455,-2.455 0,-1.353 -1.101,-2.453 -2.455,-2.453"
         fill="#ffffff"
         id="path16" />
    </g>
    <g
       transform="matrix(0.35278,0,0,-0.35278,97.169,80.962)"
       id="g17">
      <path
         d="m 0,0 c -0.758,0 -1.373,-0.616 -1.373,-1.373 0,-0.76 0.615,-1.378 1.373,-1.378 0.76,0 1.377,0.618 1.377,1.378 C 1.377,-0.616 0.76,0 0,0 m 0,-3.829 c -1.352,0 -2.451,1.101 -2.451,2.456 0,1.353 1.099,2.453 2.451,2.453 1.354,0 2.457,-1.1 2.457,-2.453 0,-1.355 -1.103,-2.456 -2.457,-2.456"
         fill="#ffffff"
         id="path17" />
    </g>
    <g
       transform="matrix(0.35278,0,0,-0.35278,93.912,76.27)"
       id="g18">
      <path
         d="m 0,0 c -0.758,0 -1.377,-0.617 -1.377,-1.375 0,-0.759 0.619,-1.377 1.377,-1.377 0.756,0 1.373,0.618 1.373,1.377 C 1.373,-0.617 0.756,0 0,0 m 0,-3.83 c -1.354,0 -2.457,1.101 -2.457,2.455 0,1.354 1.103,2.454 2.457,2.454 1.352,0 2.451,-1.1 2.451,-2.454 C 2.451,-2.729 1.352,-3.83 0,-3.83"
         fill="#ffffff"
         id="path18" />
    </g>
    <g
       transform="matrix(0.35278,0,0,-0.35278,78.999,89.852)"
       id="g19">
      <path
         d="m 0,0 h 4.695 c 0,-15.427 12.553,-27.978 27.979,-27.978 15.428,0 27.976,12.551 27.976,27.978 h 4.7 C 65.35,-18.018 50.693,-32.676 32.674,-32.676 14.656,-32.676 0,-18.018 0,0"
         fill="#069494"
         id="path19" />
    </g>
    <g
       transform="matrix(0.35278,0,0,-0.35278,76.149,89.852)"
       id="g20">
      <path
         d="m 0,0 h 4.697 c 0,-19.881 16.174,-36.054 36.055,-36.054 19.883,0 36.055,16.173 36.055,36.054 h 4.697 c 0,-22.472 -18.279,-40.751 -40.752,-40.751 C 18.281,-40.751 0,-22.472 0,0"
         fill="#004b8d"
         id="path20" />
    </g>
    <g
       transform="matrix(0.35278,0,0,-0.35278,81.801,89.852)"
       id="g21">
      <path
         d="m 0,0 h 4.697 c 0,-11.044 8.987,-20.032 20.033,-20.032 11.045,0 20.032,8.988 20.032,20.032 h 4.697 C 49.459,-13.635 38.367,-24.73 24.73,-24.73 11.096,-24.73 0,-13.635 0,0"
         fill="#14a751"
         id="path21" />
    </g>
  </g>
</svg>
