<svg fill="none" xmlns="http://www.w3.org/2000/svg" viewBox="0 0 1024 1024"><path fill-rule="evenodd" clip-rule="evenodd" d="M512 0C229.12 0 0 229.12 0 512c0 226.56 146.56 417.92 350.08 485.76H675.2A512.64 512.64 0 0 0 1024 512C1024 229.12 794.88 0 512 0" fill="#1b1f23"/><path d="M350.08 997.76c1.075.188 1.96.146 2.979.265zm321.889.355c1.1-.148 2.064-.122 3.23-.355zm0 0C648.914 1001.212 640 986.267 640 973.44c0-17.28.64-72.318.64-140.798 0-48-16-78.721-34.56-94.721 113.92-12.8 233.6-56.321 233.6-252.8 0-56.32-19.84-101.76-52.48-137.6 5.12-12.8 23.04-65.28-5.12-135.68 0 0-42.88-14.08-140.8 52.48-40.96-11.52-84.48-17.28-128-17.28s-87.04 5.76-128 17.28c-97.92-65.92-140.8-52.48-140.8-52.48-28.16 70.4-10.24 122.88-5.12 135.68-32.64 35.84-52.48 81.92-52.48 137.6 0 195.839 119.04 240 232.96 252.8-14.72 12.8-28.16 35.2-32.64 68.48-29.44 13.44-103.04 35.2-149.12-42.24-9.6-15.36-38.4-53.12-78.72-52.48-42.88.64-17.28 24.32.64 33.92 21.76 12.16 46.72 57.6 52.48 72.32 10.24 28.8 43.52 83.84 172.16 60.16 0 42.88.64 83.2.64 95.36 0 12.875-8.974 27.317-32.221 24.585a500.6 500.6 0 0 0 159.574 27.192 500.6 500.6 0 0 0 159.336-27.102" fill="#fff"/></svg>
