<?xml version="1.0" encoding="UTF-8"?>
<svg width="41.4" height="64.2" version="1.1" viewBox="0 0 41.4 64.2" xml:space="preserve" xmlns="http://www.w3.org/2000/svg"><g transform="translate(-29.3,-17.9)" fill="#fea"><path d="m68.6 47.6c1.3-2.7 2.1-5.8 2.1-9 0-11.4-9.3-20.7-20.7-20.7s-20.7 9.3-20.7 20.7c0 3.2 0.8 6.3 2.1 9 0 0 0.4 0.9 0.5 1l18.1 33.5 17.9-33c0.2-0.4 0.7-1.5 0.7-1.5zm-18.6-19.3c5.7 0 10.3 4.6 10.3 10.3s-4.6 10.4-10.3 10.4-10.3-4.6-10.3-10.3 4.6-10.4 10.3-10.4z" fill="#fea"/></g></svg>
