<?xml version="1.0" encoding="UTF-8" standalone="no"?>
<svg
   width="1024"
   height="1024"
   viewBox="0 0 1024 1024"
   fill="none"
   version="1.1"
   id="svg1"
   sodipodi:docname="github-icon.svg"
   inkscape:version="1.3.1 (91b66b0783, 2023-11-16)"
   xmlns:inkscape="http://www.inkscape.org/namespaces/inkscape"
   xmlns:sodipodi="http://sodipodi.sourceforge.net/DTD/sodipodi-0.dtd"
   xmlns="http://www.w3.org/2000/svg"
   xmlns:svg="http://www.w3.org/2000/svg">
  <defs
     id="defs1" />
  <sodipodi:namedview
     id="namedview1"
     pagecolor="#ffffff"
     bordercolor="#000000"
     borderopacity="0.25"
     inkscape:showpageshadow="2"
     inkscape:pageopacity="0.0"
     inkscape:pagecheckerboard="0"
     inkscape:deskcolor="#d1d1d1"
     inkscape:zoom="0.55518931"
     inkscape:cx="203.53418"
     inkscape:cy="833.94977"
     inkscape:window-width="1920"
     inkscape:window-height="1008"
     inkscape:window-x="0"
     inkscape:window-y="0"
     inkscape:window-maximized="1"
     inkscape:current-layer="svg1" />
  <path
     fill-rule="evenodd"
     clip-rule="evenodd"
     d="M 8,0 C 3.58,0 0,3.58 0,8 c 0,3.54 2.29,6.53 5.47,7.59 h 5.08 C 13.71,14.53 16,11.53 16,8 16,3.58 12.42,0 8,0 Z"
     transform="scale(64)"
     fill="#1b1f23"
     id="path1"
     sodipodi:nodetypes="ssccss" />
  <path
     id="path2"
     style="fill:#ffffff;fill-opacity:1;stroke-width:1.11774"
     d="m 350.08008,997.75977 c 1.07533,0.18818 1.95917,0.14584 2.97851,0.26562 z m 321.88867,0.35546 c 1.10072,-0.14784 2.06391,-0.12215 3.23047,-0.35546 z m 0,0 C 648.91441,1001.2117 640,986.26699 640,973.43945 c 0,-17.27998 0.64062,-72.31889 0.64062,-140.79883 0,-47.99995 -16.00056,-78.72071 -34.56054,-94.7207 113.91988,-12.79999 233.59961,-56.32098 233.59961,-252.80078 0,-56.31994 -19.8405,-101.75964 -52.48047,-137.59961 5.11999,-12.79999 23.04083,-65.27976 -5.11914,-135.67969 0,0 -42.88088,-14.07946 -140.80078,52.48047 -40.95996,-11.51999 -84.48005,-17.28125 -128,-17.28125 -43.51996,0 -87.04004,5.76126 -128,17.28125 -97.91991,-65.91993 -140.79883,-52.48047 -140.79883,-52.48047 -28.15997,70.39993 -10.24109,122.8797 -5.12109,135.67969 -32.63997,35.83997 -52.47852,81.91967 -52.47852,137.59961 0,195.8398 119.0391,240.00079 232.95898,252.80078 -14.71998,12.79999 -28.16063,35.2005 -32.64062,68.48047 -29.43997,13.43999 -103.03919,35.19969 -149.11914,-42.24023 -9.59999,-15.35999 -38.40075,-53.12047 -78.7207,-52.48047 -42.87996,0.64 -17.27936,24.31993 0.64062,33.91992 21.75998,12.15999 46.72047,57.60033 52.48047,72.32031 10.23999,28.79997 43.52028,83.84013 172.16015,60.16016 0,42.87996 0.63868,83.19939 0.63868,95.35937 0,12.87544 -8.97296,27.31775 -32.22071,24.58594 51.3642,17.66011 105.25996,26.84391 159.57422,27.19141 54.22928,-0.3444 108.04236,-9.4975 159.33594,-27.10157 z"
     sodipodi:nodetypes="cccccccsscscccscccscccccccsccc" />
</svg>
