<?xml version="1.0" encoding="UTF-8" standalone="no"?>
<svg
   xmlns:dc="http://purl.org/dc/elements/1.1/"
   xmlns:cc="http://creativecommons.org/ns#"
   xmlns:rdf="http://www.w3.org/1999/02/22-rdf-syntax-ns#"
   xmlns:svg="http://www.w3.org/2000/svg"
   xmlns="http://www.w3.org/2000/svg"
   xmlns:sodipodi="http://sodipodi.sourceforge.net/DTD/sodipodi-0.dtd"
   xmlns:inkscape="http://www.inkscape.org/namespaces/inkscape"
   id="Capa_1"
   data-name="Capa 1"
   viewBox="0 0 745.75885 764.71716"
   version="1.1"
   sodipodi:docname="logo-hortifrut.svg"
   width="745.75885"
   height="764.71716"
   inkscape:version="1.0.2 (e86c870879, 2021-01-15, custom)">
  <metadata
     id="metadata111">
    <rdf:RDF>
      <cc:Work
         rdf:about="">
        <dc:format>image/svg+xml</dc:format>
        <dc:type
           rdf:resource="http://purl.org/dc/dcmitype/StillImage" />
        <dc:title></dc:title>
      </cc:Work>
    </rdf:RDF>
  </metadata>
  <sodipodi:namedview
     pagecolor="#ffffff"
     bordercolor="#666666"
     borderopacity="1"
     objecttolerance="10"
     gridtolerance="10"
     guidetolerance="10"
     inkscape:pageopacity="0"
     inkscape:pageshadow="2"
     inkscape:window-width="1920"
     inkscape:window-height="1017"
     id="namedview109"
     showgrid="false"
     fit-margin-top="0"
     fit-margin-left="0"
     fit-margin-right="0"
     fit-margin-bottom="0"
     inkscape:zoom="0.68068037"
     inkscape:cx="246.98541"
     inkscape:cy="442.76311"
     inkscape:window-x="-8"
     inkscape:window-y="-8"
     inkscape:window-maximized="1"
     inkscape:current-layer="Capa_1" />
  <defs
     id="defs4">
    <style
       id="style2">.cls-1{fill:#37b550;}.cls-2{fill:#135c43;}.cls-3{fill:none;stroke:#000;stroke-width:0.72px;}.cls-4{fill:#ee292b;}.cls-5{fill:#dc232a;}</style>
  </defs>
  <path
     class="cls-1"
     d="m 745.65882,269.58715 -0.06,-137.07 c 0,0 -138.95,-12.6 -274.1,76.94 0,0 74.52,29.33 109.7,74.81 0,0 107.8,-47.57 164.46,-14.68 z"
     id="path6" />
  <path
     class="cls-1"
     d="m 1.9188236,272.99715 -0.1,-137.09 c 0,0 179.0999964,-9.83 266.6299964,72.36 0,0 -81.56,37.09 -116.71,82.59 0,0 -93.229996,-50.81 -149.8199964,-17.86 z"
     id="path8" />
  <path
     class="cls-2"
     d="m 745.64882,262.26715 c 0,0 -100.5,-25.54 -164.45,22 0,0 69.49,69.41 86,175.41 h 78.56 z"
     id="path10" />
  <path
     class="cls-2"
     d="m 1.9188236,262.60715 c 0,0 85.8100004,-25.61 149.8199964,21.85 0,0 -58.459996,69.48 -74.839996,175.48 H 1.9688236 Z"
     id="path12" />
  <path
     class="cls-2"
     d="M 480.60882,121.06715 V 41.867152 c 0,0 -90.17,-25.53 -101.09,79.239998 v 51.32 h 5.65 c 0,0 -3.35,-66.63 95.44,-51.36 z"
     id="path14" />
  <path
     class="cls-2"
     d="m 361.38882,172.43715 c 0,0 12.73,-114.669998 -21.09,-148.929998 0,0 -26.51,-29.6800001 -79,-22.3400001 V 78.827152 c 0,0 82.23,-9.68 90,56.569998 0,0 3.67,28.82 3.66,37 z"
     id="path16" />
  <g
     id="g945"
     transform="matrix(0.97948124,0,0,0.97948124,-6.160937,1.6214369)">
    <path
       d="M 6.29,617 V 516.08 H 26.67 V 555.8 H 66.59 V 516.08 H 87 V 617 H 66.59 V 572.87 H 26.67 V 617 Z"
       id="path18" />
    <path
       d="m 98.69,567.16 q 0,-15.42 4.61,-25.89 a 47.42,47.42 0 0 1 9.39,-13.83 39.52,39.52 0 0 1 13,-9.09 55.46,55.46 0 0 1 21.76,-4 q 22.29,0 35.69,13.84 13.4,13.84 13.38,38.47 0,24.44 -13.28,38.24 -13.28,13.8 -35.48,13.8 Q 125.25,618.7 112,605 98.75,591.3 98.69,567.16 Z m 21,-0.69 q 0,17.13 7.91,26 a 27.21,27.21 0 0 0 40.1,0.07 q 7.8,-8.78 7.81,-26.33 0,-17.34 -7.6,-25.88 -7.6,-8.54 -20.21,-8.53 -12.6,0 -20.3,8.63 -7.7,8.63 -7.72,26.04 z"
       id="path20" />
    <path
       d="M 207.31,617 V 516.08 h 42.89 q 16.17,0 23.5,2.72 a 23.26,23.26 0 0 1 11.74,9.67 29.06,29.06 0 0 1 4.4,15.9 q 0,11.36 -6.67,18.76 -6.67,7.4 -20,9.32 a 47.27,47.27 0 0 1 10.9,8.47 q 4.31,4.62 11.6,16.38 L 298,617 H 273.67 L 258.94,595 Q 251.1,583.24 248.2,580.17 a 15.59,15.59 0 0 0 -6.13,-4.2 q -3.23,-1.14 -10.25,-1.14 h -4.13 V 617 Z m 20.38,-58.24 h 15.07 q 14.67,0 18.31,-1.23 a 11,11 0 0 0 5.71,-4.27 13.11,13.11 0 0 0 2.07,-7.57 12.14,12.14 0 0 0 -2.72,-8.23 12.56,12.56 0 0 0 -7.67,-4 q -2.47,-0.33 -14.87,-0.34 h -15.9 z"
       id="path22" />
    <path
       d="m 326.55,617 v -83.85 h -29.94 v -17.07 h 80.18 v 17.07 H 346.92 V 617 Z"
       id="path24" />
    <path
       d="M 384.1,617 V 516.08 h 20.38 V 617 Z"
       id="path26" />
    <path
       d="M 418.81,617 V 516.08 H 488 v 17.07 H 439.18 V 557 h 42.13 v 17.07 H 439.18 V 617 Z"
       id="path28" />
    <path
       d="M 499.63,617 V 516.08 h 42.89 q 16.15,0 23.5,2.72 a 23.26,23.26 0 0 1 11.74,9.67 29.15,29.15 0 0 1 4.4,15.9 q 0,11.36 -6.67,18.76 -6.67,7.4 -20,9.32 a 47.13,47.13 0 0 1 10.91,8.47 q 4.3,4.62 11.6,16.38 L 590.36,617 H 566 l -14.73,-22 q -7.85,-11.76 -10.74,-14.83 a 15.59,15.59 0 0 0 -6.13,-4.2 c -2.16,-0.76 -5.57,-1.14 -10.26,-1.14 H 520 V 617 Z M 520,558.75 h 15.07 q 14.65,0 18.31,-1.23 a 11,11 0 0 0 5.71,-4.27 13.11,13.11 0 0 0 2.07,-7.57 12.14,12.14 0 0 0 -2.72,-8.23 12.58,12.58 0 0 0 -7.67,-4 c -1.66,-0.22 -6.61,-0.34 -14.88,-0.34 H 520 Z"
       id="path30" />
    <path
       d="m 596,516.08 h 20.38 v 54.65 q 0,13 0.76,16.87 a 16.32,16.32 0 0 0 6.23,9.94 q 4.92,3.76 13.45,3.76 c 5.79,0 10.14,-1.19 13.08,-3.55 a 14,14 0 0 0 5.3,-8.71 q 0.9,-5.14 0.9,-17.13 v -55.83 h 20.37 v 53 q 0,18.18 -1.65,25.67 a 28.37,28.37 0 0 1 -6.09,12.67 30.78,30.78 0 0 1 -11.88,8.23 q -7.43,3 -19.41,3.05 -14.44,0 -21.92,-3.33 A 31.21,31.21 0 0 1 603.72,606.7 27.84,27.84 0 0 1 598,595.52 q -2,-8.67 -2,-25.62 z"
       id="path32" />
    <path
       d="m 715.46,617 v -83.85 h -29.94 v -17.07 h 80.19 v 17.07 H 735.83 V 617 Z"
       id="path34" />
  </g>
  <path
     class="cls-4"
     d="m 361.79882,707.05715 -2.53,-68.43 -124.81,0.07 c 6,16.77 23.47,52.68 23.47,52.68 16.14,14.01 103.87,15.68 103.87,15.68 z"
     id="path92" />
  <path
     class="cls-4"
     d="m 470.52882,697.36715 c 18.62,-8.71 31.25,-44.43 35.67,-58.8 l -127.22,0.06 -5,68.23 c 5.48,1.82 96.55,-9.49 96.55,-9.49 z"
     id="path94" />
  <path
     class="cls-4"
     d="m 486.67882,693.71715 51.76,-11 -52.06,16.48 -19.46,24.37 9.74,-20.41 c -14.64,7 -102.64,11.62 -102.64,11.62 l -7,34.11 -5.81,-34.11 c -6.4,1.22 -95.64,-7.57 -95.64,-7.57 l 5.79,13.7 -15.25,-19.18 h -4.56 c -4.06,-0.63 -28.36,-10 -42.39,-15.51 -4.45,-1.21 -8.11,-2.54 -10,-4 0,0 4.11,1.64 10,4 15.64,4.22 41.79,7 41.79,7 -2,-3.4 -22.88,-39.86 -31.26,-54.5 h -95.63 c 54.58,76.29 143.69,126 244.48,126 100.79,0 189.85,-49.86 244.38,-126.19 h -91.59 c -9.62,16.86 -34.65,55.19 -34.65,55.19 z"
     id="path96" />
  <path
     class="cls-5"
     d="m 378.10882,431.77715 v 28 l 172.66,-0.08 c -0.29,-26.06 -5.77,-51.47 -5.77,-51.47 -38.35,17.09 -166.89,23.55 -166.89,23.55 z"
     id="path98" />
  <path
     class="cls-5"
     d="m 514.19882,315.36715 c 0,0 -75.73,21 -136,22.9 l -0.06,82.85 c 0,0 137.03,-7.38 164.13,-24.12 0,0 -18.62,-74 -28.07,-81.63 z"
     id="path100" />
  <path
     class="cls-5"
     d="m 360.08882,338.79715 c -60.3,-1.8 -133.41,-20.26 -133.41,-20.26 -8.52,7 -24.77,84.37 -24.77,84.37 22.55,12.18 155.18,17.61 155.18,17.61 z"
     id="path102" />
  <path
     class="cls-5"
     d="m 198.70882,413.27715 c -4.56,6.7 -7,46.6 -7,46.6 l 165.43,-0.08 v -28 c -133.46,-4.52 -158.43,-18.52 -158.43,-18.52 z"
     id="path104" />
  <path
     class="cls-4"
     d="m 181.02882,403.23715 c -9.73,-1.27 -36.19,-13.47 -51.46,-20.82 -5.56,-2 -9.8,-3.94 -11.28,-5.53 0,0 4.56,2.3 11.28,5.53 19.37,7 54.35,15 54.35,15 6.1,-20.58 31.79,-83.76 31.79,-83.76 -14.64,-4.05 -28.19,-9.76 -33.23,-12.74 a 10,10 0 0 1 -3.93,-2.48 c 0,0 1.4,1 3.93,2.48 10.64,4.58 36.89,7.26 36.89,7.26 14,-31.17 38,-60.95 49.48,-74.31 a 72.28,72.28 0 0 1 6.51,-7.34 c 0,0 -2.51,2.69 -6.51,7.34 -20.27,25.63 -39.13,76.74 -39.13,76.74 28.64,11.56 131,14.86 131,14.86 l 11,-115.63 0.22,2.61 5.84,113 c 56.05,1.51 135.22,-15.59 135.22,-15.59 -7.34,-22.81 -52.44,-85.86 -52.44,-85.86 23.76,17.67 60.36,83.45 60.36,83.45 9.13,1.78 39,-5.5 39,-5.5 -2.42,3 -34.09,11 -34.09,11 14.3,21.31 29.87,80.39 29.87,80.39 11,0.61 67.6,-16.66 67.6,-16.66 -3.65,5.91 -63.33,27 -63.33,27 1.6,5.89 6.3,46.29 7.39,56 h 99.87 c -16.42,-151.06 -144,-268.59 -298.93,-268.51 -154.93,0.08 -282.449996,117.71 -298.719996,268.77 l 103.839996,-0.06 c -3.07,-4.25 7.61,-56.64 7.61,-56.64 z"
     id="path106" />
</svg>
