<?xml version="1.0" encoding="UTF-8" standalone="no"?>
<!-- Created with Inkscape (http://www.inkscape.org/) -->

<svg
   version="1.1"
   id="svg1"
   width="335.80475"
   height="378.47653"
   viewBox="0 0 335.80474 378.47653"
   sodipodi:docname="platzi-logo2.svg"
   inkscape:version="1.3.1 (91b66b0783, 2023-11-16)"
   xmlns:inkscape="http://www.inkscape.org/namespaces/inkscape"
   xmlns:sodipodi="http://sodipodi.sourceforge.net/DTD/sodipodi-0.dtd"
   xmlns="http://www.w3.org/2000/svg"
   xmlns:svg="http://www.w3.org/2000/svg">
  <defs
     id="defs1" />
  <sodipodi:namedview
     id="namedview1"
     pagecolor="#ffffff"
     bordercolor="#000000"
     borderopacity="0.25"
     inkscape:showpageshadow="2"
     inkscape:pageopacity="0.0"
     inkscape:pagecheckerboard="0"
     inkscape:deskcolor="#d1d1d1"
     inkscape:zoom="0.32966642"
     inkscape:cx="-30.333693"
     inkscape:cy="382.20453"
     inkscape:window-width="1920"
     inkscape:window-height="1008"
     inkscape:window-x="0"
     inkscape:window-y="0"
     inkscape:window-maximized="1"
     inkscape:current-layer="group-R5">
    <inkscape:page
       x="0"
       y="0"
       inkscape:label="1"
       id="page1"
       width="335.80475"
       height="378.47653"
       margin="0"
       bleed="0" />
  </sodipodi:namedview>
  <g
     id="g1"
     inkscape:groupmode="layer"
     inkscape:label="1"
     transform="translate(1.8283369e-4,-0.00395034)">
    <g
       id="group-R5">
      <path
         id="path2"
         d="m 266.94039,149.7324 c -0.29379,-1.45158 -1.3958,-2.07635 -2.20527,-2.89078 -24.80345,-24.83319 -49.64904,-49.630444 -74.4091,-74.507028 -1.8681,-1.874297 -2.88459,-2.230067 -4.96838,-0.135118 -38.16277,38.310286 -76.405,76.539996 -114.697069,114.710206 -1.941732,1.93504 -1.782318,2.87963 0.06111,4.71674 38.285619,38.18137 76.522769,76.41244 114.697939,114.70302 1.8681,1.87541 2.83004,1.94942 4.72293,0.0257 11.55941,-11.75018 23.21674,-23.39388 34.95342,-34.97163 1.92264,-1.89339 2.16188,-2.94706 0.0917,-4.98078 -11.68089,-11.46792 -23.13741,-23.14881 -34.8183,-34.61028 -2.15073,-2.11354 -2.38873,-3.16598 -0.0793,-5.45183 24.83939,-24.62494 49.54987,-49.3912 74.28638,-74.12027 0.82682,-0.82806 1.61026,-1.69827 2.36394,-2.48791 m -0.0545,159.79004 c -12.61308,12.5201 -25.27574,25.00426 -37.82684,37.58635 -6.02204,6.04705 -12.68001,11.14303 -20.74123,13.99753 -22.05274,7.83476 -42.51878,4.61273 -59.26721,-11.81556 C 108.35217,309.35001 68.130518,268.92109 27.995146,228.40454 6.3343075,206.54146 6.4263117,171.80994 28.13609,149.92331 68.124196,109.6036 108.297,69.462405 148.61051,29.460044 170.27649,7.9651277 205.03404,7.9105846 226.84754,29.355916 c 27.21698,26.763278 54.2071,53.765802 80.99394,80.957984 21.18253,21.50731 21.68581,55.62151 0.66195,77.42261 -24.77246,25.67241 -50.32835,50.59858 -75.53591,75.85424 -0.91856,0.91856 -1.76397,1.90541 -2.65278,2.85992 -2.48666,1.44675 -2.43832,2.73335 -0.32478,4.8035 11.73048,11.53462 23.32707,23.20447 34.92242,34.87916 0.9074,0.9074 2.57344,1.54469 1.97347,3.38911"
         style="fill:#82ce41;fill-opacity:1;fill-rule:nonzero;stroke:none;stroke-width:0.123961" />
    </g>
  </g>
</svg>
