<?xml version="1.0" encoding="UTF-8" standalone="no"?>
<svg
   version="1.1"
   x="0px"
   y="0px"
   viewBox="0 0 63.565453 63.381138"
   xml:space="preserve"
   id="svg11"
   sodipodi:docname="noun-agile-3718887.svg"
   width="63.565453"
   height="63.381138"
   inkscape:version="1.3.1 (91b66b0783, 2023-11-16)"
   xmlns:inkscape="http://www.inkscape.org/namespaces/inkscape"
   xmlns:sodipodi="http://sodipodi.sourceforge.net/DTD/sodipodi-0.dtd"
   xmlns="http://www.w3.org/2000/svg"
   xmlns:svg="http://www.w3.org/2000/svg"><defs
     id="defs11" /><sodipodi:namedview
     id="namedview11"
     pagecolor="#ffffff"
     bordercolor="#000000"
     borderopacity="0.25"
     inkscape:showpageshadow="2"
     inkscape:pageopacity="0.0"
     inkscape:pagecheckerboard="0"
     inkscape:deskcolor="#d1d1d1"
     inkscape:zoom="3.5532116"
     inkscape:cx="-6.4730173"
     inkscape:cy="46.999734"
     inkscape:window-width="1920"
     inkscape:window-height="1008"
     inkscape:window-x="0"
     inkscape:window-y="0"
     inkscape:window-maximized="1"
     inkscape:current-layer="g7" /><g
     id="g10"
     transform="translate(-1.4345461,-0.78630491)"><path
       d="m 31.619062,38.618655 c 3.384458,0 6.138215,-2.753757 6.138215,-6.138215 0,-3.384458 -2.753757,-6.138215 -6.138215,-6.138215 -3.384458,0 -6.138215,2.753757 -6.138215,6.138215 0,3.384458 2.753757,6.138215 6.138215,6.138215 z m 0,-10.741876 c 2.538919,0 4.603661,2.064742 4.603661,4.603661 0,2.538919 -2.064742,4.603661 -4.603661,4.603661 -2.538919,0 -4.603661,-2.064742 -4.603661,-4.603661 0,-2.538919 2.064742,-4.603661 4.603661,-4.603661 z"
       id="path1"
       style="stroke-width:0.767277" /><path
       d="m 25.049062,44.29444 1.748,-0.836 c 0.156,0.069 0.313,0.135 0.471,0.196 l 0.643,1.826 h 7.415 l 0.645,-1.826 c 0.157,-0.062 0.314,-0.127 0.471,-0.196 l 1.748,0.836 5.244,-5.244 -0.836,-1.748 c 0.069,-0.156 0.135,-0.313 0.196,-0.471 l 1.825,-0.643 v -7.415 l -1.826,-0.645 c -0.062,-0.157 -0.127,-0.314 -0.196,-0.471 l 0.836,-1.748 -5.244,-5.244 -1.748,0.836 c -0.156,-0.069 -0.313,-0.135 -0.471,-0.196 l -0.643,-1.825 h -7.415 l -0.645,1.826 c -0.157,0.062 -0.314,0.127 -0.471,0.196 l -1.748,-0.836 -5.244,5.244 0.836,1.748 c -0.069,0.156 -0.135,0.313 -0.196,0.471 l -1.825,0.643 v 7.415 l 1.826,0.645 c 0.062,0.157 0.127,0.314 0.196,0.471 l -0.836,1.748 z m -4.43,-9.522 v -4.585 l 1.392,-0.491 0.157,-0.458 c 0.131,-0.383 0.292,-0.769 0.478,-1.147 l 0.213,-0.435 -0.638,-1.334 3.242,-3.242 1.334,0.638 0.435,-0.213 c 0.378,-0.186 0.764,-0.346 1.147,-0.478 l 0.458,-0.157 0.49,-1.39 h 4.585 l 0.491,1.392 0.458,0.157 c 0.383,0.131 0.769,0.292 1.147,0.478 l 0.435,0.213 1.334,-0.638 3.242,3.242 -0.638,1.334 0.213,0.435 c 0.186,0.378 0.346,0.764 0.478,1.147 l 0.157,0.458 1.39,0.49 v 4.585 l -1.392,0.491 -0.157,0.458 c -0.131,0.383 -0.292,0.769 -0.478,1.147 l -0.213,0.435 0.638,1.334 -3.242,3.242 -1.334,-0.638 -0.435,0.213 c -0.378,0.186 -0.764,0.346 -1.147,0.478 l -0.458,0.157 -0.49,1.39 h -4.585 l -0.491,-1.392 -0.458,-0.157 c -0.383,-0.131 -0.769,-0.292 -1.147,-0.478 l -0.435,-0.213 -1.334,0.638 -3.242,-3.242 0.638,-1.334 -0.213,-0.435 c -0.186,-0.378 -0.346,-0.764 -0.478,-1.147 l -0.157,-0.458 z"
       id="path3" /><path
       d="M 15.668707,46.648476 H 4.7193526 c -1.8110233,0 -3.2848065,1.473783 -3.2848065,3.284807 v 10.949354 c 0,1.811024 1.4737832,3.284807 3.2848065,3.284807 H 15.668707 c 1.811024,0 3.284807,-1.473783 3.284807,-3.284807 V 49.933283 c 0,-1.811024 -1.473783,-3.284807 -3.284807,-3.284807 z m 1.343692,14.234161 c 0,0.60331 -0.740382,1.293941 -1.343692,1.293941 H 4.7193526 c -0.6033094,0 -1.3436917,-0.690631 -1.3436917,-1.293941 V 49.933283 c 0,-0.60331 0.7403823,-1.343692 1.3436917,-1.343692 H 15.668707 c 0.60331,0 1.343692,0.740382 1.343692,1.343692 z"
       id="path4"
       style="stroke-width:1.09494"
       sodipodi:nodetypes="ssssssssssssssssss" /><path
       d="M 62,24 H 52 c -1.654,0 -3,1.346 -3,3 v 10 c 0,1.654 1.346,3 3,3 h 10 c 1.654,0 3,-1.346 3,-3 V 27 c 0,-1.654 -1.346,-3 -3,-3 z m 1,13 c 0,0.551 -0.449,1 -1,1 H 52 c -0.551,0 -1,-0.449 -1,-1 V 27 c 0,-0.551 0.449,-1 1,-1 h 10 c 0.551,0 1,0.449 1,1 z"
       id="path5" /><polygon
       points="58.293,28.293 53,33.586 51.707,32.293 50.293,33.707 53,36.414 59.707,29.707 "
       id="polygon8"
       transform="translate(2)" /><path
       d="m 46.757,45.03 0.485,1.94 5.684,-1.421 C 48.335,52.661 40.519,57 32,57 28.341,57 24.815,56.228 21.521,54.705 L 20.682,56.52 C 24.241,58.166 28.049,59 32,59 41.059,59 49.379,54.46 54.367,46.996 l 0.641,5.128 1.984,-0.248 -1.14,-9.12 z"
       id="path8" /><path
       d="m 11.973,36.232 -1.945,-0.465 -1.22,5.106 C 7.612,37.913 7,34.938 7,32 7,28.31 7.785,24.757 9.333,21.438 L 7.52,20.592 C 5.848,24.178 5,28.016 5,32 c 0,3.183 0.655,6.394 1.935,9.579 l -4.452,-2.455 -0.966,1.752 8.258,4.552 z"
       id="path9" /><path
       d="M 33.555,9.168 30.303,7 H 32 c 9.355,0 17.856,5.158 22.184,13.461 l 1.773,-0.925 C 51.284,10.57 42.104,5 32,5 H 30.303 L 33.555,2.832 32.446,1.168 25.197,6 l 7.248,4.832 z"
       id="path10" /><path
       d="m 12.115222,57.651915 1.921194,-1.921193 -1.921194,-1.921194 c -0.227756,-0.229485 -0.227756,-0.599723 0,-0.829209 0.227214,-0.227735 0.596154,-0.227735 0.823369,0 l 2.335797,2.335799 c 0.227729,0.229496 0.227729,0.59971 0,0.829208 l -2.335797,2.335797 c -0.22893,0.223563 -0.594439,0.223563 -0.823369,0 -0.230665,-0.228279 -0.230665,-0.600929 0,-0.829208 z M 9.4640915,58.63295 c 0.3127004,0.07654 0.6284755,-0.11397 0.7065795,-0.426282 l 1.167898,-4.671596 c 0.186864,-0.755242 -0.945997,-1.035538 -1.132861,-0.280296 l -1.167899,4.671596 c -0.077379,0.312827 0.1134638,0.62916 0.4262825,0.706578 z M 7.221726,58.481123 c 0.5528165,0.553236 1.3804969,-0.280315 0.8233685,-0.829208 L 6.123901,55.730722 8.0450945,53.809528 c 0.227728,-0.229497 0.227728,-0.599711 0,-0.829209 -0.2272144,-0.227735 -0.596154,-0.227735 -0.8233685,0 l -2.3357978,2.335799 c -0.2277274,0.229496 -0.2277274,0.59971 0,0.829208 z"
       id="path1-3"
       style="stroke-width:0.58395" /><g
       id="g2"
       transform="matrix(0.93414848,0,0,0.93414848,7.4689405,0.78630491)"><path
         d="M 14,0 H 2 C 0.9,0 0,0.9 0,2 v 16 c 0,1.1 0.9,2 2,2 h 9.5 c -1,-1.1 -1.5,-2.5 -1.5,-4 0,-3.3 2.7,-6 6,-6 V 2 C 16,0.9 15.1,0 14,0 Z M 8,17 H 3 C 2.4,17 2,16.6 2,16 2,15.4 2.4,15 3,15 h 5 c 0.6,0 1,0.4 1,1 0,0.5 -0.4,1 -1,1 z M 8,13 H 3 C 2.4,13 2,12.6 2,12 2,11.4 2.4,11 3,11 h 5 c 0.6,0 1,0.4 1,1 0,0.5 -0.4,1 -1,1 z M 10,9 H 3 C 2.4,9 2,8.5 2,8 2,7.4 2.4,7 3,7 h 7 c 0.6,0 1,0.4 1,1 0,0.5 -0.4,1 -1,1 z M 10,5 H 3 C 2.4,5 2,4.5 2,4 2,3.4 2.4,3 3,3 h 7 c 0.6,0 1,0.4 1,1 0,0.5 -0.4,1 -1,1 z"
         id="path2" /><g
         id="g7"
         transform="matrix(0.14158855,0,0,0.14158855,8.8721861,8.9047561)"><path
           d="m 78.34,54.73 c -0.81,-0.16 -1.6,0.36 -1.77,1.17 -0.37,1.83 -0.93,3.63 -1.66,5.35 -0.71,1.69 -1.6,3.32 -2.63,4.84 -1.02,1.51 -2.19,2.93 -3.48,4.22 -1.29,1.29 -2.71,2.46 -4.22,3.48 -1.52,1.03 -3.15,1.91 -4.84,2.63 -1.72,0.73 -3.52,1.29 -5.35,1.66 -3.75,0.77 -7.73,0.77 -11.49,0 -1.83,-0.37 -3.63,-0.93 -5.35,-1.66 -1.69,-0.71 -3.32,-1.6 -4.84,-2.63 C 31.2,72.77 29.78,71.6 28.49,70.31 27.2,69.02 26.03,67.6 25.01,66.09 23.98,64.57 23.1,62.94 22.38,61.25 21.65,59.53 21.09,57.73 20.72,55.9 c -0.38,-1.88 -0.58,-3.81 -0.58,-5.75 0,-1.94 0.2,-3.87 0.58,-5.75 0.37,-1.83 0.93,-3.63 1.66,-5.35 0.71,-1.69 1.6,-3.32 2.63,-4.84 1.02,-1.51 2.19,-2.93 3.48,-4.22 1.29,-1.29 2.71,-2.46 4.22,-3.48 1.52,-1.03 3.15,-1.91 4.84,-2.63 1.72,-0.73 3.52,-1.29 5.35,-1.66 1.88,-0.38 3.81,-0.58 5.75,-0.58 0.83,0 1.5,-0.67 1.5,-1.5 0,-0.83 -0.67,-1.5 -1.5,-1.5 -2.13,0 -4.27,0.22 -6.35,0.64 -2.02,0.41 -4.01,1.03 -5.91,1.84 -1.87,0.79 -3.67,1.77 -5.35,2.9 -1.67,1.13 -3.23,2.42 -4.66,3.85 -1.42,1.42 -2.72,2.99 -3.85,4.66 -1.14,1.68 -2.11,3.48 -2.9,5.35 -0.8,1.9 -1.42,3.89 -1.84,5.92 -0.42,2.07 -0.64,4.21 -0.64,6.35 0,2.14 0.22,4.27 0.64,6.35 0.41,2.03 1.03,4.02 1.84,5.91 0.79,1.87 1.77,3.67 2.9,5.35 1.13,1.67 2.42,3.24 3.85,4.66 1.43,1.43 3,2.72 4.66,3.84 1.68,1.14 3.48,2.12 5.35,2.91 1.9,0.8 3.89,1.42 5.91,1.84 2.08,0.42 4.21,0.64 6.35,0.64 2.14,0 4.27,-0.22 6.35,-0.64 2.02,-0.41 4.01,-1.03 5.91,-1.84 1.87,-0.79 3.67,-1.77 5.35,-2.9 1.67,-1.13 3.23,-2.42 4.66,-3.85 1.43,-1.43 2.72,-2.99 3.85,-4.66 1.14,-1.69 2.12,-3.49 2.9,-5.35 0.8,-1.9 1.42,-3.89 1.84,-5.92 0.16,-0.8 -0.36,-1.59 -1.17,-1.76 z"
           id="path1-2" /><path
           d="m 63.19,26.06 0.28,0.17 c 0.68,0.4 1.35,0.84 1.99,1.3 0.26,0.19 0.56,0.28 0.86,0.28 0.46,0 0.91,-0.21 1.2,-0.62 0.47,-0.66 0.32,-1.59 -0.34,-2.06 -0.71,-0.51 -1.45,-0.99 -2.2,-1.44 l -0.31,-0.18 c -0.7,-0.41 -1.61,-0.17 -2.02,0.53 -0.41,0.7 -0.17,1.61 0.54,2.02 z"
           id="path2-9" /><path
           d="m 75.87,41.91 c 0.2,0.63 0.78,1.03 1.41,1.03 0.15,0 0.3,-0.02 0.44,-0.07 0.78,-0.24 1.21,-1.07 0.97,-1.85 -0.3,-0.95 -0.65,-1.89 -1.04,-2.81 -0.32,-0.75 -1.19,-1.1 -1.94,-0.78 -0.75,0.32 -1.1,1.19 -0.78,1.94 0.35,0.83 0.67,1.68 0.94,2.54 z"
           id="path3-1" /><path
           d="m 71.71,33.72 0.11,0.15 c 0.29,0.4 0.74,0.62 1.2,0.62 0.3,0 0.6,-0.09 0.86,-0.27 0.66,-0.47 0.82,-1.4 0.35,-2.06 L 74.1,31.98 c -0.55,-0.74 -1.13,-1.47 -1.74,-2.16 -0.54,-0.61 -1.47,-0.67 -2.08,-0.13 -0.61,0.54 -0.67,1.47 -0.13,2.08 0.53,0.62 1.06,1.28 1.56,1.95 z"
           id="path4-2" /><path
           d="m 80.01,47.86 c -0.07,-0.81 -0.77,-1.42 -1.59,-1.35 -0.81,0.06 -1.42,0.78 -1.35,1.59 0.03,0.37 0.05,0.73 0.06,1.1 0.01,0.37 0.02,0.73 0.02,1.1 v 0.5 c -0.01,0.82 0.64,1.49 1.45,1.5 0.01,0 0.02,0 0.03,0 0.8,0 1.46,-0.65 1.48,-1.45 V 50.3 c 0,-0.41 -0.01,-0.81 -0.02,-1.22 -0.02,-0.4 -0.04,-0.81 -0.08,-1.22 z"
           id="path5-7" /><path
           d="m 54.79,22.86 c 0.88,0.18 1.76,0.41 2.62,0.68 0.15,0.04 0.29,0.07 0.44,0.07 0.63,0 1.22,-0.41 1.41,-1.04 0.24,-0.78 -0.2,-1.61 -0.97,-1.85 -0.95,-0.29 -1.92,-0.54 -2.9,-0.75 -0.79,-0.17 -1.58,0.35 -1.74,1.15 -0.17,0.79 0.34,1.57 1.14,1.74 z"
           id="path6" /><path
           d="m 50.14,30.46 c 0,-0.83 -0.67,-1.5 -1.5,-1.5 -0.83,0 -1.5,0.67 -1.5,1.5 v 19.69 c 0,0.55 0.3,1.06 0.79,1.32 l 12.78,6.91 c 0.23,0.12 0.47,0.18 0.71,0.18 0.53,0 1.05,-0.29 1.32,-0.79 0.39,-0.73 0.12,-1.64 -0.61,-2.03 l -12,-6.48 v -18.8 z"
           id="path7" /></g></g></g></svg>
