<svg xmlns="http://www.w3.org/2000/svg" class="prefix__aa prefix__bb" viewBox="0 0 1261.8 1261.8"><circle cx="630.9" cy="630.9" r="630.9"/><g data-name="Layer 2"><path fill="#f9f9f9" d="M688.1 652.4a295.3 295.3 0 0 1-294.4 296.3A295.4 295.4 0 0 1 99.4 652.4 295.4 295.4 0 0 1 393.7 356a295.3 295.3 0 0 1 294.4 296.4m322.9 0c0 154-66 279-147.2 279-81.3 0-147.2-125-147.2-279s65.9-279 147.2-279 147.2 124.9 147.2 279m132 0c0 138-23.1 249.9-51.7 249.9s-51.8-112-51.8-250 23.2-249.8 51.9-249.8 51.7 112 51.7 250" data-name="Layer 1"/></g></svg>
