<?xml version="1.0" encoding="UTF-8" standalone="no"?>
<svg
   viewBox="0 0 1261.8324 1261.8324"
   class="aa bb"
   version="1.1"
   id="svg1"
   sodipodi:docname="medium.icon.sanitized.svg"
   width="1261.8324"
   height="1261.8324"
   inkscape:version="1.3.1 (91b66b0783, 2023-11-16)"
   xmlns:inkscape="http://www.inkscape.org/namespaces/inkscape"
   xmlns:sodipodi="http://sodipodi.sourceforge.net/DTD/sodipodi-0.dtd"
   xmlns="http://www.w3.org/2000/svg"
   xmlns:svg="http://www.w3.org/2000/svg">
  <defs
     id="defs1" />
  <sodipodi:namedview
     id="namedview1"
     pagecolor="#ffffff"
     bordercolor="#000000"
     borderopacity="0.25"
     inkscape:showpageshadow="2"
     inkscape:pageopacity="0.0"
     inkscape:pagecheckerboard="0"
     inkscape:deskcolor="#d1d1d1"
     showguides="false"
     inkscape:zoom="0.26637793"
     inkscape:cx="157.67072"
     inkscape:cy="923.49993"
     inkscape:window-width="1920"
     inkscape:window-height="1008"
     inkscape:window-x="0"
     inkscape:window-y="0"
     inkscape:window-maximized="1"
     inkscape:current-layer="svg1" />
  <circle
     style="fill:#000000;fill-opacity:1;stroke-width:1.00188"
     id="path2"
     cx="630.9162"
     cy="630.9162"
     r="630.9162" />
  <g
     data-name="Layer 2"
     id="g1"
     style="fill:#f9f9f9"
     transform="translate(99.358032,356.02695)">
    <path
       d="m 588.67,296.36 c 0,163.67 -131.78,296.35 -294.33,296.35 C 131.79,592.71 0,460 0,296.36 0,132.72 131.78,0 294.34,0 456.9,0 588.67,132.69 588.67,296.36 m 322.89,0 c 0,154.06 -65.89,279 -147.17,279 -81.28,0 -147.17,-124.94 -147.17,-279 0,-154.06 65.88,-279 147.16,-279 81.28,0 147.17,124.9 147.17,279 m 132.08,0 c 0,138 -23.17,249.94 -51.76,249.94 -28.59,0 -51.75,-111.91 -51.75,-249.94 0,-138.03 23.17,-249.94 51.75,-249.94 28.58,0 51.76,111.9 51.76,249.94"
       data-name="Layer 1"
       id="path1"
       style="fill:#f9f9f9" />
  </g>
</svg>
