<?xml version="1.0" encoding="UTF-8"?>
<svg width="92.09" height="92" data-name="Layer 1" version="1.1" viewBox="0 0 92.09 92" xmlns="http://www.w3.org/2000/svg">
 <path d="m46.25 54.01-14.32 13.1c-1.05-7.83-7.78-13.9-15.89-13.9-8.84 0-16.04 7.19-16.04 16.04v21.75c0 0.55 0.45 1 1 1h29c0.55 0 1-0.45 1-1s-0.45-1-1-1h-8.18v-13.29c0-0.55-0.45-1-1-1s-1 0.45-1 1v13.29h-7.89v-13.29c0-0.55-0.45-1-1-1s-1 0.45-1 1v13.29h-7.93v-20.75c0-7.74 6.3-14.04 14.04-14.04s14.04 6.3 14.04 14.04c0 0.4 0.23 0.76 0.6 0.92 0.36 0.16 0.79 0.09 1.08-0.18l15.86-14.5c0.41-0.37 0.44-1 0.06-1.41s-1.01-0.44-1.41-0.06z"/>
 <path d="m16.04 50.27c6.53 0 11.84-5.31 11.84-11.84s-5.31-11.84-11.84-11.84-11.84 5.31-11.84 11.84 5.31 11.84 11.84 11.84zm0-21.67c5.42 0 9.84 4.41 9.84 9.84s-4.41 9.84-9.84 9.84-9.84-4.41-9.84-9.84 4.41-9.84 9.84-9.84z"/>
 <path d="m31.15 28.46c0.16 0.09 0.33 0.14 0.5 0.14 0.27 0 0.53-0.11 0.72-0.31l8.81-9.21c0.19-0.2 0.45-0.31 0.72-0.31h25.2c1.65 0 3-1.35 3-3v-12.77c0-1.65-1.35-3-3-3h-30.46c-1.65 0-3 1.35-3 3v14.48c0 0.1-0.01 0.2-0.04 0.29l-2.9 9.54c-0.13 0.44 0.05 0.92 0.45 1.15zm4.36-10.11c0.09-0.28 0.13-0.58 0.13-0.87v-14.48c0-0.55 0.45-1 1-1h30.46c0.55 0 1 0.45 1 1v12.78c0 0.55-0.45 1-1 1h-25.2c-0.81 0-1.6 0.34-2.17 0.93l-5.91 6.18 1.68-5.53z"/>
 <path d="m63.6 38.44c0 6.53 5.31 11.84 11.84 11.84s11.84-5.31 11.84-11.84-5.31-11.84-11.84-11.84-11.84 5.31-11.84 11.84zm11.84-9.84c5.42 0 9.84 4.41 9.84 9.84s-4.41 9.84-9.84 9.84-9.84-4.41-9.84-9.84 4.41-9.84 9.84-9.84z"/>
 <path d="m75.44 53.21c-9.18 0-16.66 7.47-16.66 16.65v21.13c0 0.55 0.45 1 1 1h31.31c0.55 0 1-0.45 1-1v-21.13c0-9.18-7.47-16.65-16.65-16.65zm14.65 36.79h-8.06v-13.29c0-0.55-0.45-1-1-1s-1 0.45-1 1v13.29h-8.32v-13.29c0-0.55-0.45-1-1-1s-1 0.45-1 1v13.29h-8.94v-20.13c0-8.08 6.57-14.65 14.66-14.65s14.65 6.57 14.65 14.65v20.13z"/>
 <path d="m38.581 5.7106h27.08c0.55 0 1-0.45 1-1s-0.45-1-1-1h-27.08c-0.55 0-1 0.45-1 1s0.45 1 1 1z"/>
 <path d="m38.581 10.131h27.08c0.55 0 1-0.45 1-1s-0.45-1-1-1h-27.08c-0.55 0-1 0.45-1 1s0.45 1 1 1z"/>
 <path d="m66.661 13.551c0-0.55-0.45-1-1-1h-27.08c-0.55 0-1 0.45-1 1s0.45 1 1 1h27.08c0.55 0 1-0.45 1-1z"/>
</svg>
