<?xml version="1.0" encoding="UTF-8" standalone="no"?>
<svg
   version="1.1"
   x="0px"
   y="0px"
   viewBox="0 0 89.199997 72.800003"
   xml:space="preserve"
   id="svg7"
   sodipodi:docname="noun-cloud-technology-5719631.svg"
   width="89.199997"
   height="72.800003"
   inkscape:version="1.3.1 (91b66b0783, 2023-11-16)"
   xmlns:inkscape="http://www.inkscape.org/namespaces/inkscape"
   xmlns:sodipodi="http://sodipodi.sourceforge.net/DTD/sodipodi-0.dtd"
   xmlns="http://www.w3.org/2000/svg"
   xmlns:svg="http://www.w3.org/2000/svg"><defs
     id="defs7" /><sodipodi:namedview
     id="namedview7"
     pagecolor="#ffffff"
     bordercolor="#000000"
     borderopacity="0.25"
     inkscape:showpageshadow="2"
     inkscape:pageopacity="0.0"
     inkscape:pagecheckerboard="0"
     inkscape:deskcolor="#d1d1d1"
     inkscape:zoom="6.432"
     inkscape:cx="44.620647"
     inkscape:cy="30.317164"
     inkscape:window-width="1920"
     inkscape:window-height="1008"
     inkscape:window-x="0"
     inkscape:window-y="0"
     inkscape:window-maximized="1"
     inkscape:current-layer="svg7" /><g
     id="g6"
     transform="translate(-5.4,-13.6)"><path
       d="m 65,77.4 v -5.3 c 0,-0.3 -0.1,-0.6 -0.4,-0.9 L 55.4,62 V 43.1 c 0,-0.7 -0.5,-1.2 -1.2,-1.2 -0.7,0 -1.2,0.6 -1.2,1.2 v 19.3 c 0,0.3 0.1,0.6 0.4,0.9 l 9.3,9.3 v 4.8 c -1.9,0.5 -3.3,2.3 -3.3,4.4 0,2.5 2,4.6 4.6,4.6 2.6,0 4.6,-2 4.6,-4.6 C 68.4,79.7 67,78 65,77.4 Z m -1.2,6.5 c -1.2,0 -2.1,-1 -2.1,-2.1 0,-1.1 1,-2.1 2.1,-2.1 1.2,0 2.1,1 2.1,2.1 0,1.1 -0.9,2.1 -2.1,2.1 z"
       id="path1" /><path
       d="m 53.1,77.2 c -2.1,0 -3.9,1.4 -4.4,3.4 H 35 V 66.8 c 1.9,-0.5 3.3,-2.3 3.3,-4.4 0,-2.5 -2,-4.6 -4.6,-4.6 -2.5,0 -4.6,2 -4.6,4.6 0,2.1 1.4,3.8 3.3,4.4 v 15 c 0,0.7 0.5,1.2 1.2,1.2 h 14.9 c 0.5,1.9 2.3,3.4 4.4,3.4 2.5,0 4.6,-2.1 4.6,-4.6 0,-2.5 -1.9,-4.6 -4.4,-4.6 z M 31.6,62.5 c 0,-1.2 1,-2.1 2.1,-2.1 1.2,0 2.1,1 2.1,2.1 0,1.2 -1,2.1 -2.1,2.1 -1.1,0 -2.1,-1 -2.1,-2.1 z M 53.1,84 c -1.2,0 -2.2,-1 -2.2,-2.2 0,-1.2 1,-2.2 2.2,-2.2 1.2,0 2.2,1 2.2,2.2 0,1.2 -1,2.2 -2.2,2.2 z"
       id="path2" /><path
       d="m 43.4,41.9 c -0.7,0 -1.2,0.5 -1.2,1.2 v 29 c 0,0.7 0.5,1.2 1.2,1.2 h 5.3 c 0.5,1.9 2.3,3.3 4.4,3.3 2.5,0 4.6,-2 4.6,-4.6 0,-2.5 -2,-4.6 -4.6,-4.6 -2.1,0 -3.8,1.4 -4.4,3.3 H 44.6 V 43.1 c 0,-0.6 -0.5,-1.2 -1.2,-1.2 z M 53.1,70 c 1.2,0 2.1,1 2.1,2.1 0,1.1 -1,2.1 -2.1,2.1 -1.2,0 -2.1,-1 -2.1,-2.1 C 51,71 51.9,70 53.1,70 Z"
       id="path3" /><path
       d="M 73.6,67.7 V 52.8 c 0,-0.7 -0.5,-1.2 -1.2,-1.2 H 64 V 43.2 C 64,42.5 63.5,42 62.8,42 c -0.7,0 -1.2,0.5 -1.2,1.2 v 9.7 c 0,0.7 0.5,1.2 1.2,1.2 h 8.4 v 13.7 c -1.9,0.5 -3.4,2.3 -3.4,4.4 0,2.5 2.1,4.6 4.6,4.6 2.5,0 4.6,-2.1 4.6,-4.6 0,-2.2 -1.4,-4 -3.4,-4.5 z m -1.2,6.6 c -1.2,0 -2.2,-1 -2.2,-2.2 0,-1.2 1,-2.2 2.2,-2.2 1.2,0 2.2,1 2.2,2.2 0,1.2 -1,2.2 -2.2,2.2 z"
       id="path4" /><path
       d="m 33.8,41.9 c -0.7,0 -1.2,0.5 -1.2,1.2 v 5.2 c -1.9,0.5 -3.4,2.3 -3.4,4.4 0,2.5 2.1,4.6 4.6,4.6 2.5,0 4.6,-2.1 4.6,-4.6 0,-2.1 -1.4,-3.9 -3.4,-4.4 v -5.2 c 0,-0.6 -0.6,-1.2 -1.2,-1.2 z m 2.1,10.9 c 0,1.2 -1,2.2 -2.2,2.2 -1.2,0 -2.2,-1 -2.2,-2.2 0,-1.2 1,-2.2 2.2,-2.2 1.2,0 2.2,1 2.2,2.2 z"
       id="path5" /><path
       d="M 83.7,36.9 C 83.4,24 72.8,13.6 59.8,13.6 c -8.1,0 -15.5,4 -19.9,10.6 -1.4,-0.5 -2.8,-0.8 -4.3,-0.8 -5.7,0 -10.7,4 -12.1,9.4 -0.4,0 -0.8,0 -1.2,0 -9.3,0 -16.9,7.6 -16.9,16.9 0,9.2 7.4,16.6 16.9,16.8 h 0.4 c 0.2,0 0.5,0 0.8,0 h 2.8 c 0.7,0 1.2,-0.5 1.2,-1.2 0,-0.7 -0.5,-1.2 -1.2,-1.2 h -2.8 c -0.3,0 -0.5,0 -0.7,0 H 22.3 C 14.2,64 7.8,57.6 7.8,49.8 c 0,-8 6.5,-14.5 14.5,-14.5 0.7,0 1.4,0 2,0.1 0.7,0.1 1.3,-0.4 1.4,-1 0.7,-4.9 5,-8.5 9.9,-8.5 1.5,0 2.9,0.3 4.2,1 0.6,0.3 1.2,0.1 1.6,-0.5 C 45.3,19.9 52.2,16 59.8,16 c 11.9,0 21.5,9.6 21.5,21.5 v 0.3 c 0,0.6 0.4,1.1 1,1.2 5.8,1.3 10,6.5 10,12.5 0,6.6 -5.2,12.2 -11.8,12.7 -0.6,0 -1.1,0.1 -1.7,0 -0.7,0 -1.2,0.5 -1.3,1.1 0,0.7 0.5,1.2 1.1,1.3 0.3,0 0.6,0 0.8,0 0.4,0 0.8,0 1.2,-0.1 7.8,-0.6 14,-7.3 14,-15.2 0,-6.5 -4.5,-12.5 -10.9,-14.4 z"
       id="path6" /></g></svg>
