<?xml version="1.0" encoding="UTF-8"?>
<svg width="24.844" height="27.654" data-name="Layer 1" version="1.1" viewBox="0 0 24.844 27.654" xmlns="http://www.w3.org/2000/svg">
 <path d="m3.923 8.242v2.331l3.433-2.331h1.711c1.426 0 2.585-1.159 2.585-2.584v-3.074c0-1.425-1.159-2.584-2.585-2.584h-6.483c-1.425 0-2.584 1.159-2.584 2.584v3.074c0 1.425 1.159 2.584 2.584 2.584zm-2.845-2.584v-3.074c0-0.83 0.676-1.506 1.506-1.506h6.482c0.831 0 1.507 0.676 1.507 1.506v3.074c0 0.83-0.676 1.506-1.507 1.506h-2.043l-2.022 1.374v-1.374h-2.417c-0.83 0-1.506-0.676-1.506-1.506z"/>
 <path d="m20.858 17.082h-6.483c-1.425 0-2.584 1.159-2.584 2.584v3.073c0 1.426 1.159 2.585 2.584 2.585h1.339v2.33l3.433-2.33h1.712c1.425 0 2.584-1.159 2.584-2.585v-3.073c0-1.425-1.159-2.584-2.584-2.584zm1.506 5.657c0 0.831-0.676 1.507-1.506 1.507h-2.044l-2.022 1.373v-1.373h-2.417c-0.83 0-1.506-0.676-1.506-1.507v-3.073c0-0.83 0.676-1.506 1.506-1.506h6.483c0.83 0 1.506 0.676 1.506 1.506z"/>
 <path d="m24.645 12.133c-0.235-0.741-0.758-1.277-1.472-1.51-1.1-0.358-2.529 0.02-3.935 1.05-0.568 0.412-1.156 0.838-1.766 1.176-0.436 0.243-1.091 0.419-1.503 0.111-0.382-0.282-0.445-0.883-0.449-1.221-0.016-0.744 0.165-1.484 0.356-2.268 0.199-0.816 0.405-1.66 0.387-2.547-0.027-1.168-0.653-2.366-1.458-3.301 3.454 0.592 6.417 2.816 7.945 6.065l0.975-0.459c-1.916-4.074-5.882-6.685-10.365-6.835l-0.068-5e-3h-7e-3 -0.016c-0.238-0.014-0.47-9e-3 -0.707 0l0.033 1.078c0.12-4e-3 0.24-6e-3 0.359-6e-3h0.12c1.035 0.762 2.081 2.232 2.109 3.488 0.016 0.743-0.165 1.483-0.356 2.267-0.199 0.816-0.405 1.661-0.387 2.541 0.011 0.934 0.317 1.649 0.886 2.069 0.82 0.611 1.918 0.383 2.668-0.035 0.665-0.368 1.28-0.814 1.892-1.258 1.095-0.801 2.198-1.132 2.951-0.886 0.386 0.126 0.647 0.399 0.778 0.811 0.154 0.49 0.153 1.132 0.152 1.697v0.118c0 1.084-0.161 2.157-0.479 3.188l1.029 0.318c0.35-1.135 0.527-2.314 0.527-3.507v-0.117c0-0.644 2e-3 -1.373-0.203-2.023z"/>
 <path d="m8.154 22.609c-0.265-0.802-0.301-1.665-0.339-2.578l-0.01-0.212c-0.045-1.027-0.127-2.114-0.566-3.1-0.335-0.752-0.861-1.398-1.325-1.969-0.659-0.809-1.314-1.47-2.008-2.17l-0.331-0.334c-0.486-0.494-0.792-0.783-0.996-0.962 0.193-0.67 0.436-1.327 0.762-1.957l-0.957-0.494c-0.875 1.691-1.318 3.521-1.318 5.44 0 5.288 3.465 9.792 8.288 11.323 0.034 0.013 0.065 0.033 0.1 0.044l4e-3 -0.013c0.907 0.279 1.855 0.465 2.842 0.518l0.059-1.076c-0.921-0.05-1.804-0.226-2.647-0.49-0.716-0.297-1.305-1.212-1.557-1.97zm-6.011-8.336c0-0.602 0.066-1.19 0.161-1.771 0.139 0.135 0.303 0.298 0.503 0.501l0.332 0.336c0.676 0.681 1.312 1.324 1.938 2.092 0.442 0.544 0.899 1.105 1.177 1.728 0.363 0.813 0.432 1.745 0.475 2.708l9e-3 0.209c0.039 0.947 0.08 1.927 0.393 2.872 0.062 0.186 0.146 0.384 0.241 0.584-3.141-1.898-5.228-5.345-5.228-9.259z"/>
</svg>
