<?xml version="1.0" encoding="UTF-8"?>
<svg width="73.2" height="94.422" version="1.1" viewBox="0 0 73.2 94.422" xmlns="http://www.w3.org/2000/svg" xmlns:cc="http://creativecommons.org/ns#" xmlns:dc="http://purl.org/dc/elements/1.1/" xmlns:rdf="http://www.w3.org/1999/02/22-rdf-syntax-ns#">
 <defs>
  <style>.cls-1{fill:#0356a6;}</style>
 </defs>
 <title>UPAO</title>
 <g transform="translate(.019571 -.68032)" data-name="Capa 2">
  <g data-name="Capa 1">
   <path class="cls-1" d="m73.17 46.72a59.58 59.58 0 0 1-4 22.6 45.83 45.83 0 0 1-10.59 16.28 32.12 32.12 0 0 1-16 8.86 28.49 28.49 0 0 1-18-2 34.32 34.32 0 0 1-10.77-7.66 46.54 46.54 0 0 1-9.81-15.55 57 57 0 0 1-3.42-13.25 58.77 58.77 0 0 1-0.58-9.89 57.29 57.29 0 0 1 5.94-23.89 43.83 43.83 0 0 1 10.22-13.41 31.24 31.24 0 0 1 16.2-7.81 28.34 28.34 0 0 1 15.86 2.17 35.24 35.24 0 0 1 12.21 9 49.74 49.74 0 0 1 11.28 22.6 55 55 0 0 1 1.46 11.95zm-1.06 1.18a53.54 53.54 0 0 0-0.67-8.9 53.44 53.44 0 0 0-5.78-17.5 41.81 41.81 0 0 0-9.91-12.29c-5.94-4.93-12.67-7.63-20.5-7.27a26.51 26.51 0 0 0-6.38 1.06 33.27 33.27 0 0 0-16.61 11.48c-6.8 8.43-10.1 18.23-11 28.91a38.31 38.31 0 0 0-0.09 7.42c0.28 2.35 0.35 4.73 0.75 7.06a51.8 51.8 0 0 0 7.08 18.91 38.21 38.21 0 0 0 13.38 13.29 27.73 27.73 0 0 0 19 3.47 30.52 30.52 0 0 0 15.12-7.54 42.32 42.32 0 0 0 9.76-12.85 56 56 0 0 0 5.85-25.25z"/>
   <path class="cls-1" d="m8.55 49.06c0-8.74 1.52-16 4.9-22.73a34.2 34.2 0 0 1 7.34-10 23.51 23.51 0 0 1 12.21-6.33 21.25 21.25 0 0 1 15 3 30.65 30.65 0 0 1 10.31 10.71 44.28 44.28 0 0 1 5.69 15.67 55 55 0 0 1 0.65 6.55 48.93 48.93 0 0 1-2.65 18.21 37.92 37.92 0 0 1-7 12.65 26 26 0 0 1-11.68 8.21 21 21 0 0 1-15.8-0.94 26.46 26.46 0 0 1-9.17-7.16 41.39 41.39 0 0 1-8.93-19.56 44.16 44.16 0 0 1-0.87-8.28zm29.38-18.56c0-0.07 0.11-0.13 0 0v0 0.06zm12.16 18.86 0.06 0.06h-0.07l-0.42-0.65a2 2 0 0 1 0.55 0.27c0.58 0.58 1.14 1.19 1.78 1.86l-1.4 3.22-4.91-2.55 1.21-3.14-4.19-2.6c-0.64 0.49-1.24 0.91-1.8 1.38a2.1 2.1 0 0 0-0.77 2.52 3 3 0 0 1 0.2 2.13 5.51 5.51 0 0 0 0.27 3.35 4 4 0 0 1-0.19 3.25q-1.06 2.67-2.07 5.36a4.38 4.38 0 0 0-0.16 2.77c0.14 0.52 0.41 0.94 1 1 0.61-0.87-0.41-1.08-0.7-1.72a23.28 23.28 0 0 1 16.74 9.08 33.61 33.61 0 0 0 3.94-6.28 44.28 44.28 0 0 0 4.5-16.67 52.28 52.28 0 0 0-0.31-11 44.47 44.47 0 0 0-4.93-15.25 30.4 30.4 0 0 0-10.42-11.51 21 21 0 0 0-11.16-3.42 20.68 20.68 0 0 0-11.14 3.11 29.87 29.87 0 0 0-10.32 10.77 44.4 44.4 0 0 0-5.91 20.19 48.76 48.76 0 0 0 1.43 15.26 40.36 40.36 0 0 0 6.83 14.48c0.14 0.18 0.31 0.33 0.5 0.53a24.15 24.15 0 0 1 16.94-9.35l-1-1c0.18-1.22 1.27-1.23 2-1.82 0.07-0.75 0.2-1.58 0.21-2.41a6.6 6.6 0 0 1 0.81-3.77l-1.14-1.7-0.13 0.67a2.07 2.07 0 0 1-2.18-0.19 1 1 0 0 0-0.69-0.13 1.11 1.11 0 0 1-1.28-0.84 0.58 0.58 0 0 0-0.1-0.17h-1.03l-0.64-1.17 0.45-1.47a2 2 0 0 0-0.45-0.21c-2.13-0.42-1.92-0.5-2.63-2.46-0.07-0.2-0.14-0.39-0.21-0.62l0.47-0.41a5.51 5.51 0 0 0 0.9 2.19c0.75-1 0.13-2.25 0.86-3.37l0.15 1.41c0.31-0.79 0.59-1.57 0.9-2.34s0.63-1.47 0.95-2.2a4.34 4.34 0 0 1 0 1.44c-0.13 0.84-0.14 0.84 0.21 1.28 0.15-0.6 0.31-1.17 0.44-1.75a48.48 48.48 0 0 1 2-7.57 4.69 4.69 0 0 0 0.24-0.91 1.59 1.59 0 0 0-1.14-1.83 4 4 0 0 0-0.17 0.73c0 0.31 0.12 0.62 0.11 0.93a8.85 8.85 0 0 1-3 6.65c-0.56 0.51-1.2 0.93-1.79 1.39 0.22 0.68 0.49 0.83 1 0.45a16.61 16.61 0 0 0 1.37-1.29 5.93 5.93 0 0 1 0.56-0.43c-0.91 1.57-1.91 3-2.91 4.42a1.08 1.08 0 0 1-0.24 0.18 4.56 4.56 0 0 0-0.41-2.77l-1.46 0.13a2.28 2.28 0 0 1-1.83-1.4l0.36-0.67a7.27 7.27 0 0 1-0.17-2.4 3.63 3.63 0 0 0-0.37-2.06v-0.18h0.69l0.3-1.29c0.65 0 1.3 0.44 1.92-0.13a7.19 7.19 0 0 1-0.1-3.79 12.77 12.77 0 0 0 0-5.4 3 3 0 0 1 0.15-1.33c0.09-0.4 0.29-0.78 0.42-1.18v-0.32l-0.81-0.19a4.27 4.27 0 0 1-0.07-1.73 5 5 0 0 0 0.06-2.49l-1.25-0.53a1.75 1.75 0 0 1-1-2.46c0.74 0 1.06 0.72 1.66 0.92 0.65 0 1.29 0.11 1.93 0.17a1.9 1.9 0 0 1 1.91 1.54c0.11 0.71 0.08 1.44 0.13 2.31l0.66 0.44c-1.54 3.87-0.8 7.78-1 11.6l1.36 0.11 0.81-0.57c0.35 0.15 0.68 0.44 0.9 0.37 1-0.32 1.5 0.25 1.86 1.08a0.92 0.92 0 0 1 1.35 0.42c0.21 0.37 0.48 0.32 0.82 0.14 0.24-0.75 0.55-1.5 0-2.27a2.47 2.47 0 0 1 0-3.27c1.34-0.66 2.7-1.19 4.23-0.45a15.07 15.07 0 0 0 0.15 2.64 5.26 5.26 0 0 1-0.44 3.1l-1.18 0.42 0.23 1.18 2.81 1.75a0.9 0.9 0 0 1 0.3 0.28 6.61 6.61 0 0 1 1.38 4 2.81 2.81 0 0 0 1 2.19 9.88 9.88 0 0 0 1.08 0.82 9.44 9.44 0 0 1 2.56 2.4c-0.16 0-0.32-0.1-0.48-0.13a1.59 1.59 0 0 0-0.29 0l0.16 0.46zm-24.52-10.9 0.05 0.06h-0.06v-0.56l0.94 0.39v-0.68l-0.9-0.14a1.14 1.14 0 0 0-0.03 0.93zm9.43 29.36a1.82 1.82 0 0 0-2-0.82 14.51 14.51 0 0 0-1.45 0.22 19.52 19.52 0 0 0-6.44 2.64 2.85 2.85 0 0 0-1.31 1.5l4.7 3 0.41-0.7a2.43 2.43 0 0 0 2.73 0.53 4.51 4.51 0 0 1 0.81-0.18 1 1 0 0 1 1.13 1 1.49 1.49 0 0 1-0.65 1.45 1.91 1.91 0 0 0-0.8 1.82 2.66 2.66 0 0 1 0 0.63 2.19 2.19 0 0 0 1.47 2.48 7.12 7.12 0 0 1 2.54 2 8 8 0 0 0 0.94 1 1.47 1.47 0 0 0 0.81 0.39 10.4 10.4 0 0 0 5.82-1.35 4.74 4.74 0 0 0 1-0.9c0.52-0.56 1-1.17 1.52-1.72a3.16 3.16 0 0 0 1-2.23 5.69 5.69 0 0 1 0.07-0.83c0.19-1.44 0-1.83-1.34-2.46a8.22 8.22 0 0 0-1.08-0.4 16.18 16.18 0 0 0-4.54-0.65h-0.95l-0.55-1a7.09 7.09 0 0 0-3.55 0.38 2.62 2.62 0 0 1-2 0.06c-1.19-0.39-2.4-0.74-3.59-1.13a3.72 3.72 0 0 1-0.68-0.45c1.29-0.85 2.46-1.67 3.67-2.39a1.86 1.86 0 0 1 1.21-0.16 10.93 10.93 0 0 0 3.33-0.17 3.47 3.47 0 0 0 0.88-0.36 4.25 4.25 0 0 0-3.11-1.2zm3.45-25.5a5.55 5.55 0 0 1-1.45 0.93 6.35 6.35 0 0 1-1.78-0.13 3.77 3.77 0 0 0 0.34 0.78 5.4 5.4 0 0 1 0.79 4.19 4.1 4.1 0 0 0 0.38 3 2.59 2.59 0 0 1 0.21 0.63c-0.86 1.12-0.87 1.7-0.07 2.73 0.17-0.69-0.16-1.43 0.23-2.14 0.39 0.82 0.73 1.53 1.06 2.25 0.22 0.48 0.44 0.95 0.64 1.44a2.83 2.83 0 0 1-0.08 2.43c-1.12 2.18-1.32 4.61-1.89 6.94a2.82 2.82 0 0 0 1.29 2.76c0.13 0.07 0.34 0 0.63 0-0.19-0.21-0.27-0.32-0.37-0.41a3 3 0 0 1-1-3.22 12.85 12.85 0 0 1 0.53-1.7c0.39-1 0.84-2.06 1.23-3.11 0.2-0.55 0.31-1.14 0.46-1.71s0.28-1 0.41-1.44c0-2.16-1.22-4-2.09-5.93 0.49-1.75-0.71-3.26-0.84-5 0.72 0.45 0.41 1.59 1.41 1.77l0.51-0.58 0.76 0.24v-1.32a3.94 3.94 0 0 0-2.17-0.72 7.91 7.91 0 0 1-0.81-0.19c-0.49-0.07-0.56-0.39-0.64-0.77h2.31c0.43 0.79 1.23 0.83 2.12 0.63-0.07 0.78-0.47 1.45-0.16 2.25 1.07-0.7 0.59-2 1.34-2.7a7.13 7.13 0 0 0-0.46-3.44c-0.39 1.17 0.13 2.59-0.92 3.62a3 3 0 0 1-1.94-2.08zm-9.27-15.84 0.07 0.16-0.53 0.41a1.64 1.64 0 0 0-0.62 1.47c0.1 1.28 0.17 2.57 0.2 3.85s0 2.51 0 3.77c0 0.33-0.06 0.73 0.37 0.76l1.33-1.31a3.23 3.23 0 0 1-0.6 2.59 4.46 4.46 0 0 1-4.34 2l0.34 1.59a5.68 5.68 0 0 0 5.08-2.64 6 6 0 0 0 0.65-3.23c0-0.82-0.44-1-1.26-0.86a2.4 2.4 0 0 1-0.46 0.05c-0.13-1.31-0.24-2.56-0.38-3.79a18.15 18.15 0 0 1-0.21-3.84l0.49 0.2a6.28 6.28 0 0 0 0-3.28l0.45-1.25 0.43 0.34-0.14-0.76h-2.9l-0.11 1 0.34-0.43 1.27 0.17c-0.27 0.67-0.48 1.3-0.79 1.89a2.86 2.86 0 0 0-0.32 2.19l0.51-1.63 0.32 0.69zm7.22 10-1 4.48v-0.07c0.33 0.84 0.78 1.2 1.4 1.13s1.07-0.43 1.28-1.29c0.07-0.28 0.16-0.56 0.23-0.84 0.32 1.19 0.45 2.4 1.67 3a1.08 1.08 0 0 0 0.77-1.07c0-0.62-0.07-1.25-0.11-1.87 0-0.24-0.14-0.54 0-0.71 0.42-0.72-0.05-1-0.44-1.38-0.81-0.05-0.77 0.76-1.27 1.11l-0.47-0.97-0.52 0.56c-0.4-1.31-0.86-1.93-1.54-2.12zm-4 14.89c0.23-1.63 0.55-3.06 0.62-4.51a28.1 28.1 0 0 1 0.85-5.23c0.19-0.84 0.42-1.68 0.58-2.54a11.48 11.48 0 0 0 0.1-1.44h-0.27c-1.37 4.28-2.07 8.81-3.28 13.35zm-7-8.4c0.19 0.91 0.36 1.11 1 1a6.72 6.72 0 0 0 3-1.39 11.4 11.4 0 0 0 2.6-3.23 5.77 5.77 0 0 0 0.75-3.52c-0.05-0.47-0.11-1-0.84-1v2.44a5 5 0 0 1-2.28 4.23 7.68 7.68 0 0 1-4.21 1.43zm13.6-11.97a2.15 2.15 0 0 0-0.05 1.82 2.29 2.29 0 0 1 0.26 1.69c-0.05 0.3-0.06 0.6-0.1 1l1.44-0.3a10.57 10.57 0 0 0 0.31-1.21 11.84 11.84 0 0 0 0-1.34c-0.52 0-1 0.14-1.14-0.55h1l0.14-1-1-0.51zm-13-12.21c-0.21-0.17-0.37-0.3-0.54-0.42l-0.59-0.45c-0.05 0.9 0.2 1.39 1 1.57a3.42 3.42 0 0 1 2 1.5c0.17 0.22 0.32 0.45 0.46 0.64l1.15 0.05a2.41 2.41 0 0 0-0.39-2.36l-0.55 0.24a2.11 2.11 0 0 0-2.54-0.77zm13.42 18.53-0.1-1.07-1.12-0.58c0.51-0.55 0-1.3 0.55-1.82 0.06-0.06 0-0.28-0.06-0.4-0.19-0.35-0.41-0.69-0.66-1.09a1.16 1.16 0 0 0-0.38 1.33c0.19 0.9 0.25 1.82 0.38 2.82l-0.86-0.26 1.14 1.4zm4.27 6.55a1.9 1.9 0 0 0 0.47 1.75 11.53 11.53 0 0 0 1.76 1.44 11.34 11.34 0 0 0 2 1.08 2.64 2.64 0 0 0-1.5-1.51 5.11 5.11 0 0 1-2.29-2.19 4.26 4.26 0 0 0-0.44-0.57zm-12.14 10.07 0.39-2h-1.1c-0.5 1.35-0.39 1.67 0.71 2zm1.09 0.81c0.44-1.19 0.32-2.26-0.25-2.61a1.94 1.94 0 0 0 0.25 2.61zm11.29-11.37a2.46 2.46 0 0 0-0.29-2c-0.62 0.27-0.65 0.31-0.66 0.77 0.02 0.7 0.16 0.91 0.95 1.23zm-9.26-0.69a3.56 3.56 0 0 0 0.61 3.18 8.61 8.61 0 0 0-0.61-3.18zm2.33-10.69 0.91-0.65 0.43 0.53 0.22-0.92c-1.56 0.3-1.56 0.3-1.56 1.04zm6.25 8.18c-0.41 0.24-1 0.22-0.73 1l0.9-0.29zm-0.9 0c0.49-0.66 0.47-0.7-0.4-1.16zm-2.78 9.14v-1.32c-0.43 0.56-0.49 0.88 0 1.31zm-14.3-9.58 0.21-0.2a5.4 5.4 0 0 0-0.43-0.52s-0.15 0.09-0.33 0.19zm15.26-9.3 0.13-0.2-0.53-0.24-0.08 0.18zm-1.67-0.44h-0.23v0.4h0.14zm0.71 0.16-0.11-0.06-0.17 0.25 0.15 0.08zm-2.29 0.54s0-0.07-0.05-0.08 0 0-0.07 0l0.08 0.12zm-0.12 1.76h0.05v-0.05z"/>
   <path class="cls-1" d="m48.92 87.12c0.13-0.76 0.27-1.4 0.34-2.05a0.74 0.74 0 0 1 0.64-0.77l1.94 3.85-0.7 0.34-1.29-2.56-0.5 2-1.65-0.62-0.13 0.14 1.21 2.22-0.6 0.44c-0.11-0.1-0.21-0.15-0.25-0.23-0.41-0.81-0.78-1.64-1.2-2.44a12.57 12.57 0 0 0-0.73-1.03l0.52-0.34z"/>
   <path class="cls-1" d="m6.08 49.18h-2.84v-0.69l4.08-0.17c0.36 0.48 0.17 0.77-0.22 1.07a14.68 14.68 0 0 0-2 1.86l2.41-0.25 0.14 0.79c-1.42 0.18-2.83-0.22-4.2 0.46l-0.1-0.74 2.72-2.36z"/>
   <path class="cls-1" d="m50.78 12.44a0.81 0.81 0 0 1-0.73-0.86c0-0.88-0.15-1.77-0.25-2.85l-1.35 2.27-0.67-0.32c0.71-1.27 1.72-2.29 2-3.77l0.67 0.36 0.33 3.57 0.16 0.06 1.4-2.47 0.64 0.37z"/>
   <path class="cls-1" d="m20.55 82.06a7.35 7.35 0 0 0-1 0.69c-0.65 0.63-1.26 1.31-1.93 2l-0.55-0.44 0.49-3.25a8.88 8.88 0 0 0-1.85 1.82l-0.6-0.52c0.93-1.09 2.2-1.8 2.74-3.18 0.63 0.21 0.64 0.64 0.55 1.16-0.17 0.92-0.28 1.84-0.45 3a9.37 9.37 0 0 0 2.05-2.23l0.7 0.75-0.23 0.23z"/>
   <path class="cls-1" d="m56.24 18.07-0.46-0.63c1.11-0.88 2.47-1.44 3.2-2.8l0.51 0.62-1 3.41 0.17 0.1 2.23-1.77 0.44 0.6-3.33 2.58-0.51-0.56 0.87-2.92-0.17-0.14z"/>
   <path class="cls-1" d="m65.37 54.34a2.11 2.11 0 0 1 2.11-2.15 2.21 2.21 0 0 1 2.3 2.21 2.21 2.21 0 1 1-4.41-0.06zm2.12 1.37c1.05 0 1.71-0.54 1.68-1.42 0-0.72-0.69-1.21-1.65-1.2h-0.1a1.35 1.35 0 0 0-1.42 1.41c0 0.77 0.56 1.2 1.49 1.21z"/>
   <path class="cls-1" d="m64.32 34.61a2.07 2.07 0 0 1 2.22-2.22 2.25 2.25 0 0 1 2.18 2.22 2.27 2.27 0 0 1-2.24 2.18 2.07 2.07 0 0 1-2.16-2.18zm2.44-1.4a1.69 1.69 0 0 0-1.83 1.49 1.15 1.15 0 0 0 1.27 1.3 1.86 1.86 0 0 0 1.89-1.6 1.27 1.27 0 0 0-1.33-1.19z"/>
   <path class="cls-1" d="m61.29 23.8a2.13 2.13 0 0 1-2.21-2.25 2.2 2.2 0 1 1 2.21 2.25zm-1.56-2.05a1.32 1.32 0 0 0 1.27 1.38 2.21 2.21 0 0 0 1.84-1.74 1.41 1.41 0 0 0-1.24-1.32 2.07 2.07 0 0 0-1.87 1.68z"/>
   <path class="cls-1" d="m38.74 88.29 0.78-0.11 0.28 1.82 1.66-0.33-0.35-1.68 0.82-0.2 0.69 4.21-0.8 0.2-0.22-1.88-1.66 0.31 0.34 1.77-0.76 0.23z"/>
   <path class="cls-1" d="m65.79 51.35a15 15 0 0 1 0-2 1.81 1.81 0 0 1 1.84-1.66 2 2 0 0 1 2.28 1.42 3.31 3.31 0 0 1-0.14 2.29l-0.65-0.08c0.33-0.92 0.74-1.82-0.19-2.53a1.71 1.71 0 0 0-1.79-0.14c-0.77 0.36-0.93 1.06-0.83 1.95l1.48 0.13v0.84z"/>
   <path class="cls-1" d="m69.71 40.89a8 8 0 0 1 0 1.39 1.13 1.13 0 0 1-1.89 0.87c-0.14-0.09-0.27-0.21-0.48-0.36l-1.69 1.48c-0.19-1.27 1-1.58 1.52-2.43l-1.62 0.3-0.17-0.84zm-0.49 1c-0.94-0.1-0.94-0.1-1.47 0.2a0.76 0.76 0 0 0 0.86 0.58c0.39-0.06 0.6-0.33 0.61-0.8z"/>
   <path class="cls-1" d="m62.7 25.15-1.5 0.85-0.37-0.79 3.74-1.72a2 2 0 0 1 0.51 2.19c-0.31 0.52-0.8 0.61-1.93 0.31l-1 1.81c-0.43-0.58-0.44-0.58-0.15-1.22 0.21-0.4 0.4-0.79 0.7-1.43zm0.51-0.17c0.35 0.55 0.72 0.6 1.08 0.37a0.58 0.58 0 0 0 0.1-0.94z"/>
   <path class="cls-1" d="m6.09 29.52a2.7 2.7 0 0 1 2-2.3 1.85 1.85 0 0 1 2 0.75c0.74 1 0.38 2-0.06 3zm3.68 0.58a1.54 1.54 0 0 0-0.75-2c-0.78-0.38-1.53-0.09-2.15 0.9z"/>
   <path class="cls-1" d="m31.54 8.22-0.7-4a2.34 2.34 0 0 1 2.71 0.19 2.13 2.13 0 0 1 0.63 2.28c-0.31 1-1.07 1.44-2.64 1.53zm0.62-0.61c1.13-0.42 1.55-1.13 1.27-2a1.3 1.3 0 0 0-1.76-0.94z"/>
   <path class="cls-1" d="m7.73 52.78a4.36 4.36 0 0 0 0.23 2c0.13 0.87-0.29 1.37-1.19 1.52s-1.77 0.22-2.77 0.36l-0.2-0.66c0.14-0.07 0.22-0.15 0.31-0.16 0.76-0.09 1.53-0.15 2.29-0.25s1-0.41 1-1-0.31-0.92-0.91-0.89c-0.93 0.06-1.86 0.19-2.85 0.3v-0.78z"/>
   <path class="cls-1" d="m66.93 39.22-1.38 1.43c-0.17-0.68-0.17-0.68 1.2-2.28-0.33 0.05-0.57 0.07-0.81 0.12l-0.81 0.21-0.13-0.84 4.12-0.7c0.19 0.74 0.56 1.57-0.18 2.28s-1.31 0.18-2.01-0.22zm0.32-0.9c0.22 0.54 0.5 0.82 1 0.68s0.59-0.42 0.44-1z"/>
   <path class="cls-1" d="m6.62 37.77 1.5 0.23v0.83l-4-0.73c-0.12-1.1 0.21-1.92 0.88-2.1s1.28 0.1 1.64 0.87l1.83-0.87c0.27 0.64-0.19 0.83-0.55 1.06s-0.76 0.4-1.3 0.71zm-2-0.45c0.49 0.17 0.93 0.44 1.43 0.18a0.71 0.71 0 0 0-0.62-0.85c-0.43-0.08-0.64 0.25-0.8 0.67z"/>
   <path class="cls-1" d="m45.92 90.77a5.93 5.93 0 0 1-0.71 0.44 1.31 1.31 0 0 1-1.94-0.76c-0.34-0.9-0.62-1.84-0.94-2.8l0.69-0.3a1.9 1.9 0 0 1 0.17 0.28c0.22 0.77 0.4 1.56 0.64 2.32s0.56 0.92 1.13 0.75a1 1 0 0 0 0.66-1.32c-0.23-0.83-0.54-1.64-0.84-2.54l0.76-0.17c0.42 1.35 0.83 2.64 1.27 4.06l-0.78 0.11z"/>
   <path class="cls-1" d="m9.51 21.68c1-1.77 2.17-2.35 3.39-1.62s1.36 2.05 0.18 3.81zm3.49 1.32c0.37-1.11 0.22-1.71-0.47-2.17s-1.36-0.38-2.28 0.5z"/>
   <path class="cls-1" d="m17.79 11.17c0.6-0.62 1.16-1.24 2.08-1 0.59 0.14 0.81 0.65 0.84 1.77l2.05 0.45c-0.82 1-1.74 0.11-2.78 0.33l1.25 1-0.64 0.65zm1.93 1c0.4-0.43 0.47-0.8 0.13-1.17s-0.64-0.31-1.1 0z"/>
   <path class="cls-1" d="m10.6 26.26 0.87 1.1-0.4 0.78-2.92-3.86h4.76l-0.34 0.75h-1.38zm-0.11-1.26-1.08-0.13 0.74 0.82z"/>
   <path class="cls-1" d="m22 88.16c0.78-0.46 1.55-0.9 2.32-1.38 0.57-0.36 1.13-0.76 1.83-1.24l-0.24 4.82-0.79-0.36v-1.45l-1.12-0.68-1.11 0.88-0.85-0.6zm3.37-0.22-0.07-1-0.73 0.54z"/>
   <path class="cls-1" d="m38.83 7.85h-0.93c-0.14-0.42-0.25-0.78-0.38-1.14a0.87 0.87 0 0 0-0.18-0.2h-1.29l-0.62 1.09h-0.85l2.42-4.29zm-1.61-2-0.42-0.86-0.33 0.77z"/>
   <path class="cls-1" d="m27.86 9.57-0.74 0.32 0.46-4.76a8.52 8.52 0 0 1 1.81 1.58l1.78 1.56-0.91 0.39-0.91-1-1.3 0.51zm1-2.53-0.56-0.6-0.2 0.15v0.86z"/>
   <path class="cls-1" d="m45.45 8.09-1 0.86-0.83-0.32 3.88-3.08v4.83l-0.81-0.26 0.08-1.42zm1.24-1-0.69 0.51 0.74 0.4z"/>
   <path class="cls-1" d="m23 7.26 2.28 2.19a12.53 12.53 0 0 0-0.36-3.14l0.73-0.46 0.48 4.51c-0.33 0.4-0.62 0.25-0.91 0l-1.55-1.36c-0.44-0.39-0.89-0.77-1.43-1.23z"/>
   <path class="cls-1" d="m12.11 76.91a0.45 0.45 0 0 1-0.79 0.12 2.54 2.54 0 0 1-1-2.39 2.11 2.11 0 0 1 1.79-1.7 2 2 0 0 1 2.05 0.77 9.24 9.24 0 0 1 0.84 1.36l-0.52 0.42c-0.09-0.07-0.16-0.09-0.18-0.14-0.1-0.26-0.18-0.53-0.29-0.79a1.28 1.28 0 0 0-1.38-0.89 1.78 1.78 0 0 0-1.55 1.08 1.28 1.28 0 0 0 0.39 1.51c0.18 0.23 0.42 0.44 0.64 0.65z"/>
   <path class="cls-1" d="m7.64 44.47-4.38 1.53v-0.9l3.06-0.82a9.27 9.27 0 0 0-2.88-1.28v-0.9c1.84 0.66 3.74 1.69 4.2 2.37z"/>
   <path class="cls-1" d="m32.7 88.14-0.57 0.38-1-0.42-0.33 1.27 1 0.4c-0.19 0.82-0.75 0.16-1.18 0.36l-0.29 1.23 1.45 0.22c0 0.36-0.19 0.58-0.57 0.49-0.6-0.13-1.2-0.31-1.74-0.45l1-4.18a4.2 4.2 0 0 1 2.19 0.72z"/>
   <path class="cls-1" d="m16.37 77 1.31 1.71-0.61 0.23-0.63-1-1.09 0.78 0.71 1-0.57 0.25-0.57-0.82-1.12 0.85 1.14 1.16c-0.35 0.17-0.66 0.22-0.92-0.1s-0.7-0.92-1-1.38z"/>
   <path class="cls-1" d="m7.72 41.79-4-0.48c-0.29-0.68 0.17-1.36 0.11-2.18l0.71 0.35-0.33 1.05 1.32 0.25 0.25-1.12c0.75 0.1 0.41 0.64 0.41 1.13l1.23 0.21v-1.52c0.67 0.35 0.72 0.75 0.3 2.31z"/>
   <path class="cls-1" d="m57.75 14.27-0.64-0.92-1 0.91 0.64 0.9-0.43 0.24-0.68-0.73-1 0.87 1.15 1.08c-0.73 0.31-0.88 0.2-1.94-1.34l3.15-2.87 1.44 1.59z"/>
   <path class="cls-1" d="m15.28 13.67a10 10 0 0 1 0.92-0.92 1.33 1.33 0 0 1 1.72 0 1.31 1.31 0 0 1 0.14 1.62c-0.1 0.18-0.23 0.33-0.39 0.56l1.23 1-0.51 0.68zm2.06 0.94c0.55-0.44 0.45-0.81 0.08-1.17s-0.62-0.4-1.25 0.06z"/>
   <path class="cls-1" d="m64.07 72.11c-0.61-0.31-1 0.11-1.41 0.29a1.26 1.26 0 0 1-1.58-0.4 1.3 1.3 0 0 1 0-1.63c0.23-0.29 0.49-0.38 0.85 0-0.07 0.1-0.16 0.22-0.24 0.35s-0.16 0.3-0.24 0.47c0.17 0.49 0.46 0.67 0.95 0.41a5.17 5.17 0 0 1 0.74-0.38 1.22 1.22 0 0 1 1.36 0.19 1.16 1.16 0 0 1 0.22 1.35 9.81 9.81 0 0 1-0.51 0.93l-0.68-0.39c0.54-0.54 0.54-0.54 0.54-1.19z"/>
   <path class="cls-1" d="m12.28 71.94c-0.21-0.37-0.09-1-0.76-1-0.51 0.08-0.52 0.59-0.6 1-0.19 1-0.58 1.46-1.21 1.43s-1.15-0.57-1.31-1.47v-0.17l0.68-0.37c0 0.55-0.17 1.16 0.62 1.24 0.51-0.3 0.46-0.86 0.56-1.36a1.19 1.19 0 0 1 1.12-1 1.44 1.44 0 0 1 1.33 1c0.12 0.29 0.09 0.59-0.43 0.7z"/>
   <path class="cls-1" d="m8.89 35.5-0.89-0.23c0.28-0.46 0.66-0.91 0-1.44-0.29 0.2-0.6 0.39-0.89 0.62-0.66 0.54-1.29 0.63-1.78 0.24s-0.66-1.08-0.12-2l0.56 0.13-0.32 0.87a0.68 0.68 0 0 0 1.16 0.16 5.17 5.17 0 0 1 0.71-0.62 1 1 0 0 1 1.68 0.86 8.49 8.49 0 0 1-0.11 1.41z"/>
   <path class="cls-1" d="m56.37 11.71-0.67 0.36-0.77-0.84-2.35 2.91-0.58-0.55 2.39-2.77-1-0.67c0.45-0.44 0.48-0.48 0.77-0.26 0.72 0.57 1.43 1.18 2.21 1.82z"/>
   <path class="cls-1" d="m32.68 88.16a10.18 10.18 0 0 1 3.32 0.24l-0.27 0.57-1.09-0.17-0.34 3.63h-0.76l0.36-3.6-1.21-0.16v-0.53z"/>
   <path class="cls-1" d="m66.15 47c-0.68-0.67-0.22-1.54-0.33-2.35h4.11v2.11l-0.5-0.18 0.15-1.11h-1.31c0 0.15-0.09 0.34-0.12 0.53s0 0.34-0.06 0.51c-0.88 0-0.3-0.69-0.53-1h-1.29l0.14 1.45z"/>
   <path class="cls-1" d="m23.27 84.16-0.58 0.1-0.8-0.72-2.22 2.92-0.67-0.46 2.33-3-1-0.64 0.18-0.36 0.23-0.23c0.73 0.58 1.46 1.14 2.17 1.73a1.9 1.9 0 0 1 0.34 0.59z"/>
   <path class="cls-1" d="m5.46 31.35 0.25-0.77 4 1.23-0.18 0.76z"/>
   <path class="cls-1" d="m15.86 76.29-3.49 2.51-0.43-0.67 3.43-2.44z"/>
   <path class="cls-1" d="m22 88.15-0.91-0.55c0.55-0.74 1.06-1.39 1.5-2.07a11.57 11.57 0 0 0 0.67-1.37c0.46-0.29 0.67 0.13 1 0.31-0.59 0.84-1.19 1.63-1.72 2.46a7.61 7.61 0 0 0-0.54 1.23z"/>
   <path class="cls-1" d="m21.58 8.22 2.27 3.44a0.73 0.73 0 0 1-0.14 0.2 4.27 4.27 0 0 1-0.49 0.28l-2.22-3.47a0.52 0.52 0 0 1 0.13-0.2 3.75 3.75 0 0 1 0.45-0.25z"/>
   <path class="cls-1" d="m3.2 47.23 0.1-0.74 4.14 0.15v0.75z"/>
   <path class="cls-1" d="m49.69 48.75-0.69-0.22z"/>
   <path class="cls-1" d="m28.09 47.47-0.22 0.45z"/>
   <path class="cls-1" d="m27.88 47.89-0.22 0.23z"/>
  </g>
 </g>
 <metadata>
  <rdf:RDF>
   <cc:Work rdf:about="">
    <dc:title>UPAO</dc:title>
   </cc:Work>
  </rdf:RDF>
 </metadata>
</svg>
