<?xml version="1.0" encoding="UTF-8"?>
<!-- Generator: Adobe Illustrator 24.3.0, SVG Export Plug-In . SVG Version: 6.00 Build 0)  -->
<svg enable-background="new 0 0 975 446" version="1.1" viewBox="0 0 975 446" xml:space="preserve" xmlns="http://www.w3.org/2000/svg">
<style type="text/css">
	.st0{fill:url(#SVGID_1_);}
	.st1{fill:url(#SVGID_2_);}
	.st2{fill:url(#SVGID_3_);}
	.st3{fill:url(#SVGID_4_);}
	.st4{fill:url(#SVGID_5_);}
	.st5{fill:url(#SVGID_6_);}
	.st6{fill:url(#SVGID_7_);}
	.st7{fill:url(#SVGID_8_);}
	.st8{fill:url(#SVGID_9_);}
	.st9{fill:url(#SVGID_10_);}
	.st10{fill:url(#SVGID_11_);}
	.st11{fill:url(#SVGID_12_);}
</style>
<g transform="matrix(1.1056 0 0 1.1056 -51.468 -23.549)">
	<linearGradient id="SVGID_1_" x1="917.69" x2="819.16" y1="-9.603" y2="293.58" gradientUnits="userSpaceOnUse">
		<stop stop-color="#33ACAD" offset="0"/>
		<stop stop-color="#D2D239" offset="1"/>
	</linearGradient>
	<path class="st0" d="m917.1 54.3h-24.7c-19.4 0-35.2 15.7-35.2 35.2v10.4c0 7.9 6.4 14.3 14.3 14.3h10.5c19.4 0 35.2-15.7 35.2-35.2v-24.7z" fill="url(#SVGID_1_)"/>
	
		<linearGradient id="SVGID_2_" x1="447.13" x2="474.3" y1="362.91" y2="217.35" gradientUnits="userSpaceOnUse">
			<stop stop-color="#33ACAD" offset="0"/>
			<stop stop-color="#D2D239" offset="1"/>
		</linearGradient>
		<path class="st1" d="m481.6 293.8h-13.9c-12.7 0-23-10.3-23-23v-110.5c0-12.7 10.3-23 23-23h13.9c12.7 0 23 10.3 23 23v110.5c0 12.7-10.3 23-23 23z" fill="url(#SVGID_2_)"/>
		<linearGradient id="SVGID_3_" x1="286.43" x2="470" y1="25.751" y2="302.38" gradientUnits="userSpaceOnUse">
			<stop stop-color="#33ACAD" offset="0"/>
			<stop stop-color="#D2D239" offset="1"/>
		</linearGradient>
		<path class="st2" d="m384.8 54.3c-66.1 0-119.8 53.6-119.8 119.8 0 66.1 53.6 119.8 119.8 119.8 66.1 0 119.8-53.6 119.8-119.8s-53.6-119.8-119.8-119.8zm0 179.6c-33.1 0-59.9-26.8-59.9-59.9s26.8-59.9 59.9-59.9 59.9 26.8 59.9 59.9-26.8 59.9-59.9 59.9z" fill="url(#SVGID_3_)"/>
	
	<linearGradient id="SVGID_4_" x1="963.6" x2="845.11" y1="-29.017" y2="335.56" gradientUnits="userSpaceOnUse">
		<stop stop-color="#33ACAD" offset="0"/>
		<stop stop-color="#D2D239" offset="1"/>
	</linearGradient>
	<path class="st3" d="m894 293.8h-13.9c-12.7 0-23-10.3-23-23v-128.4c0-12.7 10.3-23 23-23h13.9c12.7 0 23 10.3 23 23v128.4c0 12.7-10.3 23-23 23z" fill="url(#SVGID_4_)"/>
	
		<linearGradient id="SVGID_5_" x1="112.47" x2="261.62" y1="447.53" y2="23.025" gradientUnits="userSpaceOnUse">
			<stop stop-color="#33ACAD" offset="0"/>
			<stop stop-color="#D2D239" offset="1"/>
		</linearGradient>
		<path class="st4" d="m248.2 124.2h-48c-3.3 0-5.9 2.6-5.9 5.9v163.7c-0.1 21-17.1 37.9-38 37.9-15.1 0-28.1-8.8-34.3-21.5-4.8-9.9-14.5-16.5-25.5-16.5h-2.8c-21 0-35.3 21.7-26.6 40.8 15.5 33.8 49.6 57.3 89.2 57.3 52.7 0 95.5-41.5 97.8-93.6 0.1-0.4 0.1-0.7 0.1-1.1v-167c0-3.2-2.7-5.9-6-5.9z" fill="url(#SVGID_5_)"/>
		
			<linearGradient id="SVGID_6_" x1="363.42" x2="-1.1682" y1="300.01" y2="50.15" gradientUnits="userSpaceOnUse">
				<stop stop-color="#33ACAD" offset="0"/>
				<stop stop-color="#D2D239" offset="1"/>
			</linearGradient>
			<path class="st5" d="m224.2 54.3c-16.5 0-29.9 13.4-29.9 29.9v111.5h-0.2c0 21-17 38-38 38s-38-17-38-38h-60.1c0 54.2 43.9 98.1 98.1 98.1 50.2 0 91.6-37.8 97.4-86.5h0.7v-123.1c0-16.5-13.4-29.9-30-29.9z" fill="url(#SVGID_6_)"/>
			<linearGradient id="SVGID_7_" x1="53.995" x2="131.29" y1="39.357" y2="308" gradientUnits="userSpaceOnUse">
				<stop stop-color="#33ACAD" offset="0"/>
				<stop stop-color="#D2D239" offset="1"/>
			</linearGradient>
			<path class="st6" d="m118 195.7-0.2-87.1c0-0.4 0.1-0.7 0.1-1.1s0-0.8-0.1-1.2v-1.2h-0.1c-1.2-15.4-14.1-27.6-29.8-27.6-16.6 0-30 13.4-30 30v0.1 88.1c-3 52.1 48.7 100 98.1 98.1-51.5 0.3-38-98.1-38-98.1z" fill="url(#SVGID_7_)"/>
		
	
	
		<linearGradient id="SVGID_8_" x1="812" x2="817.76" y1="349.86" y2="188.73" gradientUnits="userSpaceOnUse">
			<stop stop-color="#33ACAD" offset="0"/>
			<stop stop-color="#D2D239" offset="1"/>
		</linearGradient>
		<path class="st7" d="m823.8 293.5h-13.9c-12.7 0-23-10.3-23-23v-110.4c0-12.7 10.3-23 23-23h13.9c12.7 0 23 10.3 23 23v110.5c-0.1 12.7-10.3 22.9-23 22.9z" fill="url(#SVGID_8_)"/>
		
			
				<linearGradient id="SVGID_9_" x1="929.76" x2="676.34" y1="45.023" y2="285.05" gradientUnits="userSpaceOnUse">
					<stop stop-color="#33ACAD" offset="0"/>
					<stop stop-color="#D2D239" offset="1"/>
				</linearGradient>
				<path class="st8" d="m846.7 102.3c-0.2-16.3-13.5-29.5-29.9-29.5s-29.7 13.2-29.9 29.5v93.2h-0.2c0 21-17 38-38 38s-38-17-38-38h-60.1c0 54.2 43.9 98.1 98.1 98.1 51.1 0 93.1-39.1 97.7-89h0.4z" fill="url(#SVGID_9_)"/>
			
			
				<linearGradient id="SVGID_10_" x1="711.94" x2="552.27" y1="129.45" y2="270.95" gradientUnits="userSpaceOnUse">
					<stop stop-color="#33ACAD" offset="0"/>
					<stop stop-color="#D2D239" offset="1"/>
				</linearGradient>
				<path class="st9" d="m650.6 195.5c0 21-17 38-38 38s-38-17-38-38h-60.1c0 54.2 43.9 98.1 98.1 98.1s98.1-43.9 98.1-98.1z" fill="url(#SVGID_10_)"/>
			
		
	
	<linearGradient id="SVGID_11_" x1="514.46" x2="612.68" y1="202.66" y2="202.66" gradientUnits="userSpaceOnUse">
		<stop stop-color="#33ACAD" offset="0"/>
		<stop stop-color="#D2D239" offset="1"/>
	</linearGradient>
	<path class="st10" d="m574.6 194.4-0.2-52.1v-0.6c0-16.5-13.4-30-30-30-16.5 0-30 13.4-30 30v0.6 52.1c-3 52.6 45.6 101.4 98.1 99.1-51.4 0.3-37.9-99.1-37.9-99.1z" fill="url(#SVGID_11_)"/>
	<linearGradient id="SVGID_12_" x1="773.55" x2="679.33" y1="127.23" y2="223.09" gradientUnits="userSpaceOnUse">
		<stop stop-color="#33ACAD" offset="0"/>
		<stop stop-color="#D2D239" offset="1"/>
	</linearGradient>
	<path class="st11" d="m710.9 194.4-0.2-69.9c0-0.5 0.1-0.9 0.1-1.4 0-16.6-13.4-30-30-30-16.4 0-29.6 13.1-29.9 29.4v71.9c-3 52.6 44.6 101.4 98.1 99.1-51.6 0.3-38.1-99.1-38.1-99.1z" fill="url(#SVGID_12_)"/>
</g>
</svg>
