<?xml version="1.0" encoding="UTF-8"?>
<svg width="62" height="55.9" enable-background="new 0 0 64 64" version="1.1" viewBox="0 0 62 55.9" xml:space="preserve" xmlns="http://www.w3.org/2000/svg"><g transform="translate(-1,-4.05)"><path d="m47.5 36.2-15-10c-0.3-0.2-0.8-0.2-1.1 0l-15 10c-0.2 0.2-0.4 0.5-0.4 0.8v12c0 0.3 0.2 0.6 0.5 0.8l15 10c0.3 0.2 0.8 0.2 1.1 0l15-10c0.3-0.2 0.5-0.5 0.5-0.8v-12c-0.1-0.3-0.3-0.6-0.6-0.8zm-25.2 6.1 4-4c0.9-0.9 2.3 0.5 1.4 1.4l-3.3 3.3 3.3 3.3c0.4 0.4 0.4 1 0 1.4s-1 0.4-1.4 0l-4-4c-0.4-0.4-0.4-1 0-1.4zm7.7 5.7c-0.2 0-0.3 0-0.5-0.1-0.5-0.2-0.7-0.8-0.4-1.3l4-8c0.6-1.2 2.4-0.3 1.8 0.9l-4 8c-0.2 0.3-0.5 0.5-0.9 0.5zm11.7-4.3-4 4c-0.4 0.4-1 0.4-1.4 0s-0.4-1 0-1.4l3.3-3.3-3.3-3.3c-0.9-0.9 0.5-2.3 1.4-1.4l4 4c0.4 0.4 0.4 1 0 1.4z"/><path d="m3 26.5v-11l14-9.3 14 9.3v7.5c0 1.3 2 1.3 2 0v-8c0-0.3-0.2-0.6-0.4-0.8l-15-10c-0.3-0.2-0.8-0.2-1.1 0l-15 10c-0.3 0.2-0.5 0.5-0.5 0.8v12c0 0.3 0.2 0.6 0.4 0.8l11.7 7.8c0.2 0.1 0.4 0.2 0.6 0.2 1 0 1.4-1.3 0.6-1.8-0.1-0.1-11.3-7.5-11.3-7.5z"/><path d="m62.6 14.2-15-10c-0.3-0.2-0.8-0.2-1.1 0l-11.7 7.8c-0.5 0.3-0.6 0.9-0.3 1.4s0.9 0.6 1.4 0.3l11.1-7.5 14 9.3v10.9l-11.2 7.5c-1.1 0.7 0 2.4 1.1 1.7l11.7-7.8c0.3-0.2 0.4-0.5 0.4-0.8v-12c0-0.3-0.2-0.6-0.4-0.8z"/><path d="m10.2 25.6c0.4 0.4 1 0.5 1.4 0.1l6-5c0.2-0.2 0.4-0.5 0.4-0.8s-0.1-0.6-0.4-0.8l-6-5c-1-0.8-2.3 0.7-1.3 1.5l5.1 4.2-5.1 4.2c-0.4 0.6-0.4 1.2-0.1 1.6z"/><path d="m19 26h6c1.3 0 1.3-2 0-2h-6c-1.3 0-1.3 2 0 2z"/><path d="m43 25h8c1.3 0 1.3-2 0-2h-8c-1.3 0-1.3 2 0 2z"/><path d="m43 19h8c1.3 0 1.3-2 0-2h-8c-1.3 0-1.3 2 0 2z"/></g></svg>
